<?xml version="1.0" encoding="UTF-8"?>
<svg version="1.1" xmlns="http://www.w3.org/2000/svg" width="1920" height="1080">
<path d="M0 0 C633.6 0 1267.2 0 1920 0 C1920 356.4 1920 712.8 1920 1080 C1286.4 1080 652.8 1080 0 1080 C0 723.6 0 367.2 0 0 Z " fill="#1F6ED0" transform="translate(0,0)"/>
<path d="M0 0 C10.05792489 5.58773605 10.05792489 5.58773605 13.4453125 7.69140625 C26.00060866 15.40300766 38.84072493 22.37570718 52 29 C52.66209473 29.33837891 53.32418945 29.67675781 54.00634766 30.02539062 C73.7891288 40.08387475 95.50842565 47.60397458 117 53 C118.24281738 53.31976807 118.24281738 53.31976807 119.51074219 53.64599609 C131.35297084 56.65769532 143.31518249 58.8283449 155.375 60.75 C156.03496979 60.85700226 156.69493958 60.96400452 157.37490845 61.07424927 C175.33867741 63.96066871 193.16224668 64.23698325 211.3125 64.25 C212.41850555 64.25133942 213.52451111 64.25267883 214.66403198 64.25405884 C231.33617172 64.24968418 247.51518626 63.64194129 264 61 C265.4072955 60.8028472 266.8148288 60.60738017 268.22265625 60.4140625 C278.11636545 58.88890613 287.83347985 56.45432145 297.5625 54.125 C298.25579407 53.96005035 298.94908813 53.79510071 299.66339111 53.62515259 C308.68241266 51.46818626 317.53845298 48.99292959 326.36987305 46.16235352 C329.98594673 45.00449981 333.61318531 43.90304953 337.25 42.8125 C344.84132492 40.48657351 352.28548767 37.76297034 359.75 35.0625 C371.07052509 30.97940503 382.41125939 27.24010797 394 24 C394.89944336 23.74766602 395.79888672 23.49533203 396.72558594 23.23535156 C426.21523393 15.00023757 455.63341898 8.80438366 486 4.8125 C487.87546509 4.56222046 487.87546509 4.56222046 489.78881836 4.30688477 C504.98627924 2.3623376 520.0750918 1.7916117 535.375 1.8125 C536.61373871 1.81340637 536.61373871 1.81340637 537.87750244 1.81433105 C596.93939048 1.93084355 655.1221397 15.1301331 703 51 C703.94875 51.70253906 704.8975 52.40507812 705.875 53.12890625 C719.99829426 64.13043577 732.48967701 77.54830588 743 92 C743.9590625 93.28390625 743.9590625 93.28390625 744.9375 94.59375 C771.51501112 131.13782778 782.51518094 174.89779845 789.43310547 218.74511719 C793.76318727 246.09952214 803.11382829 271.17407535 825.2890625 289.08984375 C828.08314543 291.05858518 830.90771636 292.55360927 834 294 C834 294.66 834 295.32 834 296 C834.763125 296.226875 835.52625 296.45375 836.3125 296.6875 C839.36325875 297.77336329 842.14572067 298.98910339 845.0625 300.375 C906.59093519 328.49992815 987.33250828 309.65925273 1050.92079163 298.25817871 C1058.60432648 296.88390763 1066.29917861 295.58627862 1074 294.3125 C1075.20027832 294.11358154 1076.40055664 293.91466309 1077.63720703 293.7097168 C1081.09123069 293.13834046 1084.54554815 292.56878136 1088 292 C1091.37256368 291.44460905 1094.7450438 290.88874614 1098.1171875 290.33081055 C1100.11692609 289.99996228 1102.11690323 289.6705505 1104.1171875 289.34301758 C1109.10648734 288.51760837 1114.06559439 287.60386682 1119.02099609 286.59594727 C1126.06399668 285.18700083 1133.12628914 283.87657817 1140.1875 282.5625 C1141.02616608 282.4062616 1141.86483215 282.25002319 1142.72891235 282.08905029 C1155.49525594 279.72142011 1168.23562856 277.66621453 1181.15112305 276.27783203 C1183.22557919 276.02021818 1183.22557919 276.02021818 1186 275 C1188.43732319 274.65675567 1190.86813912 274.34499061 1193.3125 274.0625 C1198.30545708 273.47129414 1203.27369328 272.81164285 1208.24609375 272.06640625 C1265.67018872 263.85859913 1331.58911851 260.4516447 1388 276 C1389.24160889 276.32822754 1389.24160889 276.32822754 1390.50830078 276.66308594 C1417.59754607 283.87641541 1442.59435288 296.23683536 1465 313 C1465.85851563 313.62519531 1466.71703125 314.25039063 1467.6015625 314.89453125 C1474.52096291 320.06521047 1480.73905523 326.06634567 1487 332 C1488.22783203 333.14662109 1488.22783203 333.14662109 1489.48046875 334.31640625 C1521.84904451 365.42461269 1536.62455359 413.96581292 1538.09725571 457.90146446 C1538.14015202 461.0064791 1538.15471513 464.1102674 1538.15771484 467.21557617 C1538.16533592 468.96967804 1538.16533592 468.96967804 1538.17311096 470.75921631 C1538.1837559 473.28428098 1538.19239876 475.80935474 1538.19923019 478.3344326 C1538.211148 482.36414263 1538.23037217 486.39375196 1538.25234985 490.42341614 C1538.31369155 501.87704775 1538.3677031 513.33067496 1538.40136719 524.78442383 C1538.07371915 581.92928201 1538.07371915 581.92928201 1548 638 C1548.23589844 638.84723633 1548.47179688 639.69447266 1548.71484375 640.56738281 C1551.75359523 651.15580074 1556.11205367 660.76606932 1561.2421875 670.5 C1563 674 1563 674 1563 676 C1047.21 676 531.42 676 0 676 C0 452.92 0 229.84 0 0 Z " fill="#80AEFC" transform="translate(0,404)"/>
<path d="M0 0 C0.74978119 -0.00785522 1.49956238 -0.01571045 2.27206421 -0.02380371 C34.75301715 -0.28911787 66.42680274 11.97330845 89.86328125 34.73046875 C111.4375 56.89396813 111.4375 56.89396813 111.4375 63.375 C112.0975 63.375 112.7575 63.375 113.4375 63.375 C123.08628976 76.23176368 130.51473853 91.85908964 136.38867188 106.78491211 C138.07984047 110.96126399 139.98777585 115.03453258 141.875 119.125 C144.53021165 124.93455566 147.00749875 130.70105945 149.0625 136.75 C156.98332355 159.96431676 171.23604242 180.08082687 193.4375 191.375 C195.98607925 192.49837818 198.570633 193.48544855 201.1875 194.4375 C201.8885083 194.69499023 202.5895166 194.95248047 203.31176758 195.21777344 C220.24007461 201.34247102 236.33218798 202.75796905 254.1875 202.6875 C255.14280609 202.68567719 256.09811218 202.68385437 257.08236694 202.68197632 C272.07526388 202.63384427 286.6286092 201.82669414 301.4375 199.375 C303.88008786 198.99531791 306.32280351 198.61645731 308.765625 198.23828125 C328.53992175 195.11080988 348.1572887 191.34315967 367.54296875 186.33203125 C371.85378223 185.24301848 376.20488446 184.37860575 380.5625 183.5 C388.65578137 181.85892006 396.57035137 179.747631 404.51928711 177.51831055 C410.87769412 175.7520552 417.19193853 174.36043456 423.6796875 173.1484375 C428.90059832 172.07386334 434.01872254 170.67566069 439.1628418 169.28540039 C445.41765605 167.60823403 451.70056413 166.14450257 458.03637695 164.80688477 C461.97266427 163.96563005 465.84560142 163.00215634 469.72265625 161.91796875 C475.56038679 160.30205096 481.44236726 159.02660237 487.375 157.8125 C488.86676758 157.50022461 488.86676758 157.50022461 490.38867188 157.18164062 C495.5178566 156.12123238 500.64283298 155.16613327 505.81640625 154.34765625 C509.87888296 153.693333 513.53977313 152.69989729 517.4375 151.375 C520.19665856 150.90572689 522.96707745 150.60370664 525.75 150.3125 C530.47643777 150.20313265 530.47643777 150.20313265 534.4375 148.375 C535.84621971 148.11199384 537.26582516 147.90685151 538.6875 147.7265625 C539.59371094 147.60974121 540.49992188 147.49291992 541.43359375 147.37255859 C542.42488281 147.24961426 543.41617188 147.12666992 544.4375 147 C545.97083984 146.80591553 545.97083984 146.80591553 547.53515625 146.60791016 C549.71586033 146.33333487 551.89686182 146.06111335 554.078125 145.79101562 C557.38607175 145.38136873 560.69301495 144.96420385 564 144.546875 C566.14575072 144.28058348 568.29158203 144.01494036 570.4375 143.75 C571.41332031 143.62705566 572.38914062 143.50411133 573.39453125 143.37744141 C627.83192585 136.77317248 692.29149705 139.17476876 737.4375 174.375 C737.4375 175.035 737.4375 175.695 737.4375 176.375 C738.00597656 176.63667969 738.57445312 176.89835938 739.16015625 177.16796875 C741.61988334 178.4716663 743.68234579 179.97365763 745.875 181.6875 C746.61621094 182.26113281 747.35742188 182.83476562 748.12109375 183.42578125 C752.75316676 187.32359648 756.74172249 191.74561622 760.625 196.375 C761.06263672 196.88289062 761.50027344 197.39078125 761.95117188 197.9140625 C763.92999724 200.2705263 765.41352469 202.3144308 766.55078125 205.1875 C766.98970703 206.2703125 766.98970703 206.2703125 767.4375 207.375 C768.4275 207.705 769.4175 208.035 770.4375 208.375 C772.015625 210.125 772.015625 210.125 773.6875 212.375 C774.30882812 213.19871094 774.93015625 214.02242187 775.5703125 214.87109375 C776.18648437 215.69738281 776.80265625 216.52367187 777.4375 217.375 C786.82560072 229.66444843 796.66474859 241.59457879 806.78125 253.2890625 C807.21953125 253.79856445 807.6578125 254.30806641 808.109375 254.83300781 C809.03186143 255.90404169 809.95931521 256.97080917 810.890625 258.03417969 C814.4375 262.151444 814.4375 262.151444 814.4375 264.375 C815.4275 264.705 816.4175 265.035 817.4375 265.375 C817.4375 266.035 817.4375 266.695 817.4375 267.375 C818.0975 267.375 818.7575 267.375 819.4375 267.375 C820.98828125 269.16796875 820.98828125 269.16796875 822.75 271.5625 C825.40584472 275.16131879 828.23597965 278.25057008 831.4375 281.375 C832.67494545 282.62064159 833.91046656 283.86819649 835.14453125 285.1171875 C836.5129682 286.49484395 837.88145897 287.87244694 839.25 289.25 C839.92353516 289.93191406 840.59707031 290.61382812 841.29101562 291.31640625 C845.23860929 295.28288793 849.28514584 299.05720934 853.5246582 302.70947266 C855.34843048 304.29744642 857.12416117 305.92270678 858.88671875 307.578125 C859.69399414 308.33609375 859.69399414 308.33609375 860.51757812 309.109375 C861.60319795 310.1329971 862.68647822 311.15910532 863.76757812 312.1875 C866.22252768 314.48549862 868.42959957 316.37026614 871.33203125 318.109375 C872.37423828 318.73585938 872.37423828 318.73585938 873.4375 319.375 C873.4375 320.035 873.4375 320.695 873.4375 321.375 C873.994375 321.63023437 874.55125 321.88546875 875.125 322.1484375 C877.76814948 323.55037827 880.04027753 325.20921774 882.4375 327 C888.31427869 331.3216205 894.33103289 335.38629072 900.4375 339.375 C901.93603516 340.35919922 901.93603516 340.35919922 903.46484375 341.36328125 C904.42519531 341.98589844 905.38554688 342.60851562 906.375 343.25 C907.22964844 343.80429687 908.08429688 344.35859375 908.96484375 344.9296875 C911.41047648 346.35920426 913.80524265 347.33864718 916.4375 348.375 C918.07553179 349.22352081 919.71294034 350.07336377 921.3425293 350.93798828 C961.71523707 372.09322514 1008.60073395 377.56654601 1053.4375 371.375 C1055.61847368 371.09232518 1057.79946451 370.8097827 1059.98046875 370.52734375 C1074.28738907 368.62364822 1088.36249291 366.12776842 1102.45361328 363.02050781 C1105.56668122 362.34705407 1108.68561904 361.71176701 1111.80859375 361.0859375 C1120.94595971 359.24990176 1129.92480632 357.41290032 1138.78125 354.47265625 C1144.09171759 352.87838126 1149.47893921 351.64419764 1154.875 350.375 C1162.80664627 348.50777041 1170.65815471 346.54557303 1178.47265625 344.234375 C1181.36423646 343.39623581 1184.26308082 342.65174078 1187.1875 341.9375 C1192.21868215 340.70646607 1197.20213816 339.33971523 1202.1875 337.9375 C1208.41779757 336.1869074 1214.66316641 334.55694381 1220.95141602 333.02441406 C1225.86294211 331.80931226 1230.72447057 330.45178881 1235.58789062 329.05737305 C1251.24624414 324.572589 1267.04265325 320.74299766 1282.8815918 316.95733643 C1289.19573063 315.44445728 1295.49009919 313.85847125 1301.78076172 312.25097656 C1306.98112208 311.00522326 1312.21977169 310.03592667 1317.484375 309.1015625 C1320.13303443 308.62700013 1322.76238819 308.1003993 1325.390625 307.5234375 C1332.12432082 306.06492444 1338.26962894 305.05157915 1345.16796875 305.46484375 C1347.44452664 305.53727765 1347.44452664 305.53727765 1349.25756836 304.42041016 C1351.75656406 303.22198933 1353.83786389 302.89264517 1356.5859375 302.55859375 C1357.59269531 302.43419922 1358.59945313 302.30980469 1359.63671875 302.18164062 C1360.68472656 302.05982422 1361.73273438 301.93800781 1362.8125 301.8125 C1363.82183594 301.68681641 1364.83117188 301.56113281 1365.87109375 301.43164062 C1379.97510839 299.72881711 1393.94644306 299.16388586 1408.13891602 299.13476562 C1410.97116923 299.12509841 1413.80268259 299.09398125 1416.63476562 299.0625 C1429.4845623 298.98945851 1441.77694137 300.23605939 1454.4375 302.375 C1455.62359863 302.56215576 1456.80969727 302.74931152 1458.03173828 302.94213867 C1462.75357841 303.69405376 1467.02240145 304.79758011 1471.4453125 306.609375 C1473.56470809 307.42388781 1475.67944522 307.98588965 1477.875 308.5625 C1499.21246149 314.87496935 1521.17729283 329.31923247 1534.4375 347.375 C1535.171875 349.66015625 1535.171875 349.66015625 1535.4375 351.375 C1536.0975 351.375 1536.7575 351.375 1537.4375 351.375 C1547.94794313 365.41412907 1554.87444871 382.57003126 1559.4375 399.375 C1559.78296875 400.57511719 1560.1284375 401.77523438 1560.484375 403.01171875 C1563.90198372 415.59114778 1565.63533252 428.48170143 1567.4375 441.375 C1567.61925781 442.65890625 1567.80101562 443.9428125 1567.98828125 445.265625 C1568.72277257 451.36198168 1569.05345442 457.49869908 1569.4375 463.625 C1569.48140869 464.31263428 1569.52531738 465.00026855 1569.57055664 465.70874023 C1570.24019502 476.32694447 1570.63912091 486.93606064 1570.88415527 497.57196045 C1571.79348635 536.83030098 1577.01944248 572.81629108 1594.20288086 608.47753906 C1596.4375 613.16148943 1596.4375 613.16148943 1596.4375 615.375 C1597.0975 615.375 1597.7575 615.375 1598.4375 615.375 C1599.69921875 617.24609375 1599.69921875 617.24609375 1601.125 619.8125 C1606.66887334 629.33349987 1614.1934238 640.21228253 1623.4375 646.375 C1623.4375 647.035 1623.4375 647.695 1623.4375 648.375 C1623.98148438 648.61734375 1624.52546875 648.8596875 1625.0859375 649.109375 C1629.04227772 651.23870096 1632.43719278 654.13883621 1635.9765625 656.890625 C1643.76252613 662.6450597 1652.1333283 666.8273089 1661.0625 670.5 C1662.11501953 670.93449463 1663.16753906 671.36898926 1664.25195312 671.81665039 C1672.55958243 675.16955369 1680.64490064 677.65848008 1689.4375 679.375 C1690.14438965 679.51486328 1690.8512793 679.65472656 1691.57958984 679.79882812 C1696.19060583 680.70618005 1700.81155751 681.54686662 1705.4375 682.375 C1706.20932617 682.54136963 1706.98115234 682.70773926 1707.77636719 682.87915039 C1720.02147831 685.16078532 1732.96520177 684.61221888 1745.375 684.625 C1746.7995752 684.62800613 1746.7995752 684.62800613 1748.25292969 684.631073 C1760.95556693 684.63763317 1773.29311154 684.25670347 1785.84375 682.12890625 C1791.00539192 681.28180005 1796.22828962 680.84856458 1801.4375 680.375 C1801.4375 777.065 1801.4375 873.755 1801.4375 973.375 C1683.6275 973.375 1565.8175 973.375 1444.4375 973.375 C1431.17907765 946.8581553 1431.17907765 946.8581553 1427.4375 932.375 C1427.21368652 931.53517578 1426.98987305 930.69535156 1426.75927734 929.83007812 C1417.2770185 893.46902854 1418.96475807 855.48351876 1418.88452148 818.22338867 C1418.8615314 807.58292385 1418.82712787 796.94252504 1418.77269894 786.30217308 C1418.7500063 781.71424571 1418.74304672 777.12645784 1418.73960876 772.53846741 C1418.70226582 759.9906813 1418.33273463 747.79073806 1416.4375 735.375 C1416.15103359 733.3059907 1415.86457371 731.2369805 1415.578125 729.16796875 C1412.91669088 711.93686965 1408.89004434 695.21686101 1401.4375 679.375 C1401.15680664 678.77800293 1400.87611328 678.18100586 1400.58691406 677.56591797 C1388.44352375 651.97484727 1372.2641642 630.50786549 1349.4375 613.375 C1348.75751953 612.86211426 1348.07753906 612.34922852 1347.37695312 611.82080078 C1298.16261416 575.10079981 1240.39999603 564.66405624 1180.29797363 565.0524292 C1177.47581458 565.06589603 1174.65381231 565.06057832 1171.83163548 565.05556297 C1154.28944467 565.03207859 1136.91057329 565.71750106 1119.4375 567.375 C1117.91783531 567.51293736 1116.39814404 567.65058241 1114.87841797 567.7878418 C1111.24946583 568.12742314 1107.62479231 568.49388377 1104 568.875 C1102.82630859 568.99230469 1101.65261719 569.10960937 1100.44335938 569.23046875 C1094.14887719 569.8834379 1087.97314363 570.76456223 1081.75854492 571.95556641 C1079.10861682 572.43443214 1076.500896 572.67516708 1073.8125 572.8125 C1067.42720374 573.28091942 1061.20863956 574.41366182 1054.921875 575.56640625 C1050.66623431 576.34440775 1046.40041819 577.02822898 1042.125 577.6875 C1033.17600212 579.07872258 1024.2405332 580.54971132 1015.30654907 582.03378296 C1013.70197396 582.30019515 1012.09730051 582.56601581 1010.49252319 582.83120728 C1000.45818061 584.46690669 1000.45818061 584.46690669 990.47265625 586.37109375 C982.0426966 588.11228771 973.51648959 589.37904904 965.0234375 590.77050781 C953.59309072 592.6388 953.59309072 592.6388 942.21972656 594.82080078 C934.94041514 596.27078647 927.62195082 597.52499155 920.3125 598.8125 C919.42211029 598.96940308 918.53172058 599.12630615 917.61434937 599.28796387 C904.4408796 601.59907296 891.28545822 603.56166628 877.99365234 605.06445312 C874.66927852 605.46833121 871.36571581 605.97792152 868.05688477 606.49194336 C832.54119216 611.94600245 796.0295264 614.16568413 760.4375 608.375 C759.70740723 608.26285156 758.97731445 608.15070312 758.22509766 608.03515625 C743.20709971 605.68053184 728.73025616 600.72511223 715.4375 593.375 C715.4375 592.715 715.4375 592.055 715.4375 591.375 C714.57769531 591.14554688 713.71789062 590.91609375 712.83203125 590.6796875 C708.99365674 589.20440892 706.19864047 587.15334922 703.125 584.5 C702.56031006 584.0167627 701.99562012 583.53352539 701.41381836 583.03564453 C695.82749932 578.09454177 691.63743165 572.53831433 687.4375 566.375 C686.88578125 565.65054688 686.3340625 564.92609375 685.765625 564.1796875 C680.70077036 557.31341548 678.13010345 549.3795557 675.4375 541.375 C675.06625 540.30894531 674.695 539.24289062 674.3125 538.14453125 C671.19106969 528.3290961 669.92713351 518.22555429 668.43359375 508.0625 C666.19289783 492.84762822 663.4146711 477.96557034 658.99267578 463.22558594 C658.50316846 461.59389486 658.02963164 459.95743085 657.55859375 458.3203125 C652.8061307 441.94795288 645.31859423 426.44430246 637.4375 411.375 C636.83421875 410.21355469 636.2309375 409.05210937 635.609375 407.85546875 C627.74932201 393.40684193 617.32485193 380.67088162 605.90380859 368.89257812 C604.44744078 367.38528836 603.01439286 365.85820343 601.58203125 364.328125 C567.74572601 328.73423881 517.84436807 310.74179977 470.4375 303.375 C469.63070801 303.24899414 468.82391602 303.12298828 467.99267578 302.99316406 C451.37448956 300.48011548 434.52803524 300.16641725 417.75 300.1875 C416.51150299 300.18790787 416.51150299 300.18790787 415.24798584 300.18832397 C401.8805629 300.2084503 388.71864699 300.78300701 375.4375 302.375 C373.47786888 302.59509031 371.51823332 302.81514115 369.55859375 303.03515625 C350.45659656 305.24719409 331.56405578 308.40684 312.75 312.375 C311.6165918 312.6119458 310.48318359 312.8488916 309.31542969 313.09301758 C302.61500472 314.54195744 296.10868827 316.32575228 289.57495117 318.39746094 C286.63642289 319.31302138 283.69125134 320.14798152 280.71875 320.9453125 C269.0663405 324.07171525 257.58445186 327.54864575 246.1875 331.5 C245.01123047 331.90750488 243.83496094 332.31500977 242.62304688 332.73486328 C236.9168137 334.73624303 231.25642626 336.82011955 225.625 339.0234375 C220.69706403 340.93489287 215.80090035 342.55028488 210.6875 343.875 C209.13505167 344.29030465 207.58297612 344.70700498 206.03125 345.125 C205.26296875 345.33125 204.4946875 345.5375 203.703125 345.75 C200.86496006 346.53294205 198.05241667 347.38900753 195.23730469 348.25048828 C178.97034235 353.20652564 162.25159809 356.85288529 145.4375 359.375 C144.59509766 359.51180176 143.75269531 359.64860352 142.88476562 359.78955078 C126.36118048 362.3974547 109.94494396 362.66969644 93.25 362.6875 C91.67933273 362.69274185 91.67933273 362.69274185 90.07693481 362.6980896 C69.90169203 362.73539086 49.78254141 361.67969332 29.875 358.25 C28.63379395 358.03754639 27.39258789 357.82509277 26.11376953 357.60620117 C-5.34958306 351.97801581 -35.75631888 342.25335124 -64.5625 328.375 C-65.42472168 327.96701172 -66.28694336 327.55902344 -67.17529297 327.13867188 C-81.88069023 320.16020044 -95.87535728 312.1840801 -109.5625 303.375 C-110.28934791 303.01230369 -111.01619582 302.64960738 -111.76506943 302.27592027 C-118.05020905 298.818198 -118.05020905 298.818198 -119.39238942 295.037081 C-119.70013798 292.10054849 -119.71914129 289.27931264 -119.64479065 286.32730103 C-119.65248047 285.21144823 -119.6601703 284.09559544 -119.66809314 282.94592893 C-119.6829264 279.20433129 -119.63341288 275.46636083 -119.58422852 271.72509766 C-119.58168996 269.04436051 -119.58271805 266.36384594 -119.58821106 263.68313599 C-119.59292687 257.9108178 -119.56472825 252.13941624 -119.51407051 246.36732864 C-119.44087743 238.02206007 -119.4174828 229.67723403 -119.40617859 221.33167927 C-119.38648837 207.79134359 -119.32661502 194.25149632 -119.24145508 180.71142578 C-119.15882407 167.55975791 -119.09512825 154.40822276 -119.05688477 141.25634766 C-119.05452025 140.4454612 -119.05215574 139.63457474 -119.04971958 138.79911597 C-119.03797411 134.73107323 -119.02660077 130.66302955 -119.01541245 126.59498525 C-118.92213521 92.85463599 -118.76363799 59.11487789 -118.5625 25.375 C-116.02331093 24.42020358 -113.4838904 23.46603071 -110.94433594 22.51220703 C-110.23240082 22.24442947 -109.5204657 21.97665192 -108.78695679 21.70075989 C-93.7580014 16.05830052 -78.89359167 11.07574547 -63.0703125 8.23828125 C-59.08315946 7.51417951 -55.26026153 6.47286334 -51.375 5.3125 C-34.58546125 0.77430203 -17.30055061 0.08878631 0 0 Z " fill="#3F7DFC" transform="translate(118.5625,106.625)"/>
<path d="M0 0 C0.81307617 0.65863037 0.81307617 0.65863037 1.64257812 1.33056641 C6.98910002 5.67816612 12.16754918 10.0755025 17 15 C17.80179687 15.79019531 18.60359375 16.58039063 19.4296875 17.39453125 C29.37053248 27.22421663 37.74302275 37.74822008 46 49 C46.47880615 49.64380615 46.9576123 50.2876123 47.45092773 50.95092773 C49.91012984 54.30358571 51.61749398 56.79243375 52 61 C52.66 61 53.32 61 54 61 C56.0290983 64.71281817 58.03769677 68.43580254 60.02539062 72.17089844 C60.90255738 73.81712422 61.78677939 75.45958607 62.671875 77.1015625 C70.04821739 91.2571148 75.5911704 106.33792471 81.0625 121.3125 C85.9093997 134.37029493 91.42439946 147.28249889 99 159 C99.91887054 160.58205536 100.83544298 162.16544717 101.75 163.75 C105.77131513 170.4417197 110.36947793 176.72299337 115 183 C115.4129834 183.56154785 115.8259668 184.1230957 116.25146484 184.70166016 C123.76511769 194.86016657 132.03944889 204.08259761 141 213 C141.68320312 213.70640625 142.36640625 214.4128125 143.0703125 215.140625 C148.69311684 220.91308573 154.67305578 226.0174264 161 231 C162.02222656 231.81597656 163.04445313 232.63195312 164.09765625 233.47265625 C175.9871346 242.87173399 188.75091203 250.67918262 202 258 C202.59925293 258.33386719 203.19850586 258.66773438 203.81591797 259.01171875 C235.2859755 276.4829977 269.88095803 286.82084493 305 294 C305.8655249 294.17909912 306.7310498 294.35819824 307.62280273 294.54272461 C316.32521085 296.24012911 325.12739622 297.12924449 333.9375 298.0625 C334.76579315 298.15059937 335.5940863 298.23869873 336.44747925 298.32946777 C348.63000536 299.61674465 360.74408554 300.80132256 373 301 C374.20688477 301.02578125 375.41376953 301.0515625 376.65722656 301.078125 C408.74528807 301.72188731 440.49516801 299.6593285 472.25 295 C473.10572601 294.87461853 473.96145203 294.74923706 474.84310913 294.62005615 C483.78515733 293.29182019 492.60613817 291.78508869 501.38818359 289.60571289 C503.72896215 289.06285707 505.98901526 288.69687071 508.375 288.4375 C511.3807104 288.07474185 513.98512141 287.44155867 516.87109375 286.59106445 C519.31301208 285.91309607 521.76790421 285.33905383 524.23828125 284.7734375 C538.76013053 281.44029753 552.92931057 277.39410022 567.12939453 272.89453125 C571.04668313 271.67383509 574.99003445 270.55559549 578.9375 269.4375 C585.88352057 267.44817607 592.62412633 264.99918751 599.38378906 262.45385742 C604.10996232 260.67736999 608.82282995 259.02874526 613.69921875 257.703125 C616.46969691 256.85645935 619.1525238 255.82959859 621.8605957 254.80273438 C631.96412728 251.0117482 642.21985794 247.80732792 652.6875 245.1875 C653.51217773 244.9807666 654.33685547 244.7740332 655.18652344 244.56103516 C659.77780615 243.44466805 664.31856578 242.66464807 669 242 C671.066486 241.38696387 671.066486 241.38696387 672.9375 240.625 C683.89324378 236.83191896 695.84539148 235.65627764 707.29003906 234.08984375 C711.80746907 233.47039094 716.29528658 232.77705255 720.78515625 231.98046875 C772.96904866 223.22497732 831.29108611 226.86039412 881.69824219 242.30322266 C883.77409337 242.9316146 885.85551461 243.5255632 887.9453125 244.10546875 C915.18545228 251.98179309 940.16059787 265.36363501 963 282 C963.845625 282.61230469 964.69125 283.22460938 965.5625 283.85546875 C980.10438633 294.78785115 994.17604222 308.38765699 1005 323 C1005.78890625 324.04542969 1006.5778125 325.09085938 1007.390625 326.16796875 C1013.72324521 334.69344991 1019.04720967 343.61422605 1024 353 C1024.53004639 354.00232666 1024.53004639 354.00232666 1025.07080078 355.02490234 C1040.48599531 384.42545564 1052 419.54306257 1052 453 C624.32 453 196.64 453 -244 453 C-244 288.99 -244 124.98 -244 -44 C-232.81091618 -47.35672515 -232.81091618 -47.35672515 -228.375 -48 C-223.39789457 -48.76918902 -218.44898031 -49.63224899 -213.5 -50.5625 C-212.81728027 -50.68947266 -212.13456055 -50.81644531 -211.43115234 -50.94726562 C-207.76190876 -51.62987023 -207.76190876 -51.62987023 -204.13671875 -52.50952148 C-136.54774543 -68.0244035 -52.89670644 -43.00746575 0 0 Z " fill="#C1E0FD" transform="translate(244,627)"/>
<path d="M0 0 C484.77 0 969.54 0 1469 0 C1469 100.65 1469 201.3 1469 305 C1465.12474317 301.89979453 1462.61927279 299.53337717 1459.625 295.75 C1454.11854481 288.90117514 1448.8559913 282.5146017 1442 277 C1439.125 274.3125 1439.125 274.3125 1437 272 C1437 271.34 1437 270.68 1437 270 C1436.45859375 269.78085937 1435.9171875 269.56171875 1435.359375 269.3359375 C1432.21248131 267.5540871 1429.82640268 265.1238812 1427.25 262.625 C1404.89453309 241.51257138 1377.77362905 226.68582535 1350 214 C1348.92492188 213.50757813 1347.84984375 213.01515625 1346.7421875 212.5078125 C1323.64525016 202.43991674 1298.8513091 196.62890207 1274 193 C1272.81100098 192.81977295 1271.62200195 192.6395459 1270.39697266 192.45385742 C1257.54560128 190.64300008 1244.7073771 190.64506406 1231.75 190.6875 C1230.02256058 190.69023422 1230.02256058 190.69023422 1228.26022339 190.69302368 C1210.63785841 190.73997669 1193.4437423 191.33931407 1176 194 C1174.87432617 194.16097168 1173.74865234 194.32194336 1172.58886719 194.48779297 C1143.12120601 198.76376666 1114.13977562 206.33199568 1086 216 C1085.15872559 216.28504395 1084.31745117 216.57008789 1083.45068359 216.86376953 C1076.2359009 219.31202912 1069.091234 221.81055123 1062.17578125 225.02734375 C1059.63066052 226.16510867 1057.04697742 227.14345345 1054.4375 228.125 C1047.84711404 230.63339749 1041.327013 233.30108059 1034.8125 236 C1033.8030835 236.41523926 1032.79366699 236.83047852 1031.75366211 237.25830078 C1026.14124292 239.59363286 1020.67038451 242.08276956 1015.27270508 244.88061523 C1012.04376083 246.4709804 1008.70914787 247.73918687 1005.35546875 249.0390625 C1003.22593122 249.90782905 1001.22294267 250.87070615 999.1875 251.9375 C995.71531227 253.73345917 992.15816408 255.12345264 988.5 256.5 C984.198315 258.12178469 980.08914064 259.84641412 976.015625 261.96875 C967.15265752 266.5032915 957.88777594 270.1053429 948.6171875 273.69921875 C947.82771729 274.00553223 947.03824707 274.3118457 946.22485352 274.62744141 C944.65301265 275.23670672 943.08061054 275.84452668 941.50756836 276.45068359 C936.96208041 278.20897969 932.47398106 280.06488709 928 282 C915.86265913 287.04803041 903.65149065 291.40173759 891 295 C890.04222656 295.30679687 889.08445312 295.61359375 888.09765625 295.9296875 C854.82314348 306.29317796 816.71000287 308.70770329 785.0625 292.25 C777.67996809 288.25140659 771.12710579 283.77809344 765 278 C764.1028125 277.16984375 763.205625 276.3396875 762.28125 275.484375 C749.26305402 262.97813055 739.87851122 248.63639962 731 233 C730.59587891 232.29101562 730.19175781 231.58203125 729.77539062 230.8515625 C725.75954946 223.74608106 722.40114452 216.64745686 719.59765625 208.96875 C710.42104717 185.24603577 697.68997442 159.92497 681.09765625 140.46484375 C679.06312985 138.07418051 677.1495639 135.62356246 675.25 133.125 C672.70546184 129.8282658 670.03114263 126.86729708 667 124 C665.63015802 122.70420353 664.2848951 121.38007251 663 120 C663 119.34 663 118.68 663 118 C662.42894531 117.7421875 661.85789062 117.484375 661.26953125 117.21875 C658.78078555 115.88228071 656.84727367 114.32032738 654.6875 112.5 C640.51008606 100.99914799 625.44350147 92.42104605 608.12084961 86.70483398 C606.68268357 86.22688011 605.24864028 85.73637239 603.81860352 85.23461914 C573.34821889 74.65726687 535.39224493 76.34121973 504 82 C502.95908203 82.18755859 501.91816406 82.37511719 500.84570312 82.56835938 C493.53562203 83.91851781 486.26453 85.42489163 479 87 C478.14760742 87.18208008 477.29521484 87.36416016 476.41699219 87.55175781 C471.26652863 88.65320612 466.12897117 89.80253616 461 91 C459.74058594 91.29390625 458.48117187 91.5878125 457.18359375 91.890625 C446.06745868 94.58129975 435.12053425 97.82858847 424.15527344 101.07226562 C421.0260866 101.99232984 417.89291542 102.89719397 414.7578125 103.796875 C404.87967691 106.63663363 395.0436591 109.53305324 385.32080078 112.87133789 C381.23847714 114.27199545 377.13762357 115.57736473 373.0078125 116.83203125 C367.98053785 118.36829431 362.98623988 119.9816068 358.00390625 121.65625 C357.31531021 121.88762161 356.62671417 122.11899323 355.91725159 122.3573761 C353.09105787 123.30855665 350.26561775 124.26193205 347.44116211 125.21826172 C339.05868661 128.05338272 330.67263071 130.71009325 322.1472168 133.09277344 C317.74781924 134.36095755 313.44498244 135.86283011 309.125 137.375 C298.54382781 140.98951589 287.80027277 143.75596988 276.92041016 146.31298828 C274.93331041 146.78044345 272.94865684 147.25839385 270.96630859 147.74560547 C262.94850505 149.67854621 254.89509627 151.0921238 246.74414062 152.30761719 C244.6327511 152.62383912 242.52346341 152.95205413 240.4140625 153.28125 C211.32431183 157.73355332 181.90013416 157.46205708 153 152 C152.20754883 151.85046875 151.41509766 151.7009375 150.59863281 151.546875 C145.98059245 150.62879242 141.48458495 149.42132068 137 148 C136.19498047 147.74798828 135.38996094 147.49597656 134.56054688 147.23632812 C109.93665906 139.34429006 85.94127824 126.64049519 67.85571289 107.86669922 C65.92384171 105.92339083 63.90308141 104.14525868 61.8125 102.375 C58.45535306 99.49932993 55.77628865 96.42953304 53 93 C52.01 92.505 52.01 92.505 51 92 C50.5875 91.29875 50.175 90.5975 49.75 89.875 C48.02394674 86.85464546 48.02394674 86.85464546 45.375 84 C27.74008563 63.72849304 15.28909801 38.0847306 5.04492188 13.46191406 C3.66700371 10.21543583 2.20436472 7.00974027 0.72558594 3.80810547 C0 2 0 2 0 0 Z " fill="#003E9F" transform="translate(451,0)"/>
<path d="M0 0 C0.89203125 0.00902344 1.7840625 0.01804687 2.703125 0.02734375 C3.37859375 0.03894531 4.0540625 0.05054688 4.75 0.0625 C4.09 0.7225 3.43 1.3825 2.75 2.0625 C3.33265625 1.918125 3.9153125 1.77375 4.515625 1.625 C11.33340445 0.08135182 17.77694354 -0.15316154 24.75 0.0625 C24.42 0.7225 24.09 1.3825 23.75 2.0625 C21.37890625 2.625 21.37890625 2.625 18.3125 3.0625 C14.69671186 3.59048992 11.11397432 4.17610954 7.53515625 4.91015625 C-0.74014478 6.58960813 -9.05953955 8.03529001 -17.375 9.5 C-18.26538971 9.65690308 -19.15577942 9.81380615 -20.07315063 9.97546387 C-33.21158244 12.28042601 -46.3318457 14.2406755 -59.58837891 15.73876953 C-65.11917344 16.41147486 -70.6279002 17.27205329 -76.12963867 18.14941406 C-81.87137152 19.01843309 -87.44668102 19.2073148 -93.25 19.0625 C-92.755 17.5775 -92.755 17.5775 -92.25 16.0625 C-85.65 16.0625 -79.05 16.0625 -72.25 16.0625 C-72.25 15.4025 -72.25 14.7425 -72.25 14.0625 C-69.61 13.0725 -66.97 12.0825 -64.25 11.0625 C-64.25 12.0525 -64.25 13.0425 -64.25 14.0625 C-63.095 13.753125 -61.94 13.44375 -60.75 13.125 C-57.77706516 12.36325157 -54.93025248 11.89359362 -51.875 11.625 C-50.080625 11.3465625 -50.080625 11.3465625 -48.25 11.0625 C-47.59 10.0725 -46.93 9.0825 -46.25 8.0625 C-43.52476095 7.73065516 -40.98093427 7.55013079 -38.25 7.5 C-32.75133762 7.69420741 -32.75133762 7.69420741 -28.25 5.0625 C-25.625 4.4375 -25.625 4.4375 -23.25 4.0625 C-23.25 5.0525 -23.25 6.0425 -23.25 7.0625 C-22.26 6.7325 -21.27 6.4025 -20.25 6.0625 C-19.92 5.4025 -19.59 4.7425 -19.25 4.0625 C-16.96484375 3.6484375 -16.96484375 3.6484375 -14.1875 3.4375 C-13.26839844 3.36273437 -12.34929687 3.28796875 -11.40234375 3.2109375 C-10.69207031 3.16195312 -9.98179688 3.11296875 -9.25 3.0625 C-9.25 2.4025 -9.25 1.7425 -9.25 1.0625 C-6.09493858 0.12630187 -3.28413498 -0.0432123 0 0 Z " fill="#2A51A1" transform="translate(1056.25,695.9375)"/>
<path d="M0 0 C0 0.66 0 1.32 0 2 C-7.43617745 4.56469319 -14.91984011 6.87986405 -22.47460938 9.06201172 C-28.75371816 10.89130284 -34.938513 12.95123725 -41.12109375 15.08203125 C-44 16 -44 16 -46 16 C-45.04033823 12.77204678 -44.33900769 11.25871639 -41.625 9.1875 C-39 8 -39 8 -35 8 C-35 7.34 -35 6.68 -35 6 C-34.28972656 5.86722656 -33.57945312 5.73445313 -32.84765625 5.59765625 C-31.92855469 5.42105469 -31.00945312 5.24445313 -30.0625 5.0625 C-29.14597656 4.88847656 -28.22945313 4.71445312 -27.28515625 4.53515625 C-25.04710156 4.22285012 -25.04710156 4.22285012 -24 3 C-22.63875 3.0309375 -22.63875 3.0309375 -21.25 3.0625 C-17.93376286 2.99872621 -16.00210083 2.29820576 -13 1 C-12.01 1 -11.02 1 -10 1 C-6.78548731 -0.60725635 -3.56387464 -0.05748185 0 0 Z " fill="#2C56A8" transform="translate(403,424)"/>
<path d="M0 0 C0.73089844 -0.00338379 1.46179688 -0.00676758 2.21484375 -0.01025391 C3.01148438 -0.01412109 3.808125 -0.01798828 4.62890625 -0.02197266 C5.46164062 -0.01037109 6.294375 0.00123047 7.15234375 0.01318359 C7.98507812 0.00158203 8.8178125 -0.01001953 9.67578125 -0.02197266 C10.47242188 -0.01810547 11.2690625 -0.01423828 12.08984375 -0.01025391 C12.82074219 -0.00687012 13.55164062 -0.00348633 14.3046875 0 C16.15234375 0.38818359 16.15234375 0.38818359 18.15234375 3.38818359 C17.17177002 3.52393799 16.19119629 3.65969238 15.1809082 3.79956055 C12.25906529 4.20415354 9.33728292 4.60918111 6.41552734 5.0144043 C3.10479198 5.47357152 -0.20610139 5.93157768 -3.51708984 6.38891602 C-10.53665103 7.36014922 -17.55510745 8.33195862 -24.5625 9.38818359 C-25.96786011 9.59834106 -25.96786011 9.59834106 -27.40161133 9.81274414 C-29.0443237 10.06060949 -30.68620077 10.31411964 -32.3269043 10.57495117 C-37.857225 11.40538272 -43.26015196 11.51256048 -48.84765625 11.38818359 C-48.51765625 10.39818359 -48.18765625 9.40818359 -47.84765625 8.38818359 C-41.24765625 8.38818359 -34.64765625 8.38818359 -27.84765625 8.38818359 C-27.84765625 7.72818359 -27.84765625 7.06818359 -27.84765625 6.38818359 C-25.20765625 5.39818359 -22.56765625 4.40818359 -19.84765625 3.38818359 C-19.84765625 4.37818359 -19.84765625 5.36818359 -19.84765625 6.38818359 C-18.69265625 6.07880859 -17.53765625 5.76943359 -16.34765625 5.45068359 C-13.37472141 4.68893517 -10.52790873 4.21927722 -7.47265625 3.95068359 C-5.67828125 3.67224609 -5.67828125 3.67224609 -3.84765625 3.38818359 C-1.84765625 0.38818359 -1.84765625 0.38818359 0 0 Z " fill="#2C56A7" transform="translate(1011.84765625,703.61181640625)"/>
<path d="M0 0 C1.49080078 0.02707031 1.49080078 0.02707031 3.01171875 0.0546875 C3.77097656 0.07789063 4.53023437 0.10109375 5.3125 0.125 C5.3125 0.785 5.3125 1.445 5.3125 2.125 C6.9625 2.125 8.6125 2.125 10.3125 2.125 C10.6425 1.465 10.9725 0.805 11.3125 0.125 C13.6225 0.125 15.9325 0.125 18.3125 0.125 C18.3125 0.785 18.3125 1.445 18.3125 2.125 C2.1625722 5.37921911 -13.22128165 6.6985821 -29.6875 6.125 C-29.6875 5.465 -29.6875 4.805 -29.6875 4.125 C-27.63671875 3.89713542 -25.5859375 3.66927083 -23.53515625 3.44140625 C-21.67609771 3.30613386 -21.67609771 3.30613386 -20.6875 2.125 C-17.64398832 2.09320212 -14.61244775 2.19352567 -11.5703125 2.28515625 C-7.19577863 2.04212659 -4.69962054 -0.11057931 0 0 Z " fill="#164B8F" transform="translate(1901.6875,784.875)"/>
<path d="M0 0 C1.65 0 3.3 0 5 0 C5 0.66 5 1.32 5 2 C6.093125 1.95875 7.18625 1.9175 8.3125 1.875 C13.66203382 1.85579162 18.77842235 2.92496931 24 4 C23.34 4.33 22.68 4.66 22 5 C22 5.66 22 6.32 22 7 C24.97 7 27.94 7 31 7 C31 7.33 31 7.66 31 8 C-0.94680851 8.52659574 -0.94680851 8.52659574 -10 4 C-9.67 3.01 -9.34 2.02 -9 1 C-6.03 1.33 -3.06 1.66 0 2 C0 1.34 0 0.68 0 0 Z " fill="#1955A2" transform="translate(1824,784)"/>
<path d="M0 0 C2.75257028 0.59162713 5.10090182 0.32275494 7.89453125 0.0234375 C9.37179687 -0.12931641 9.37179687 -0.12931641 10.87890625 -0.28515625 C11.6265625 -0.36894531 12.37421875 -0.45273437 13.14453125 -0.5390625 C13.14453125 0.1209375 13.14453125 0.7809375 13.14453125 1.4609375 C10.38470679 2.15089362 7.62464878 2.8396703 4.86328125 3.5234375 C2.21085122 4.19211734 -0.43224832 4.87852465 -3.07421875 5.5859375 C-4.13962891 5.8658252 -4.13962891 5.8658252 -5.2265625 6.15136719 C-6.62700695 6.51946566 -8.02554149 6.8949225 -9.421875 7.27832031 C-12.86895734 8.17435613 -15.47426884 8.80651705 -18.85546875 7.4609375 C-16.23348101 5.30716186 -14.21142703 4.06021576 -10.85546875 3.4609375 C-11.84546875 2.8009375 -12.83546875 2.1409375 -13.85546875 1.4609375 C-9.35277811 -0.72218523 -4.8899348 -1.42065474 0 0 Z " fill="#15498C" transform="translate(488.85546875,288.5390625)"/>
<path d="M0 0 C0.763125 0.061875 1.52625 0.12375 2.3125 0.1875 C2.3125 3.1875 2.3125 3.1875 1.3125 6.1875 C-0.70947266 7.15478516 -0.70947266 7.15478516 -3.3515625 7.9765625 C-4.30933594 8.27820313 -5.26710938 8.57984375 -6.25390625 8.890625 C-7.26324219 9.19484375 -8.27257812 9.4990625 -9.3125 9.8125 C-10.29863281 10.12445312 -11.28476562 10.43640625 -12.30078125 10.7578125 C-17.42897584 12.34625194 -22.34483032 13.63377793 -27.6875 14.1875 C-27.3575 13.5275 -27.0275 12.8675 -26.6875 12.1875 C-24.125 11.5625 -24.125 11.5625 -21.6875 11.1875 C-21.3575 9.8675 -21.0275 8.5475 -20.6875 7.1875 C-18.0475 7.5175 -15.4075 7.8475 -12.6875 8.1875 C-12.6875 7.5275 -12.6875 6.8675 -12.6875 6.1875 C-11.594375 5.754375 -10.50125 5.32125 -9.375 4.875 C-7.09007105 3.91340665 -5.79974169 3.30405868 -4.0625 1.5 C-2.6875 0.1875 -2.6875 0.1875 0 0 Z " fill="#5574A4" transform="translate(828.6875,888.8125)"/>
<path d="M0 0 C0 0.66 0 1.32 0 2 C0.495 1.67 0.99 1.34 1.5 1 C5.09090894 -0.43636358 8.14456127 -0.12851462 12 0 C11 2 11 2 8.89868164 2.77783203 C7.99496826 3.01872559 7.09125488 3.25961914 6.16015625 3.5078125 C4.6896582 3.90419922 4.6896582 3.90419922 3.18945312 4.30859375 C2.15755859 4.57800781 1.12566406 4.84742188 0.0625 5.125 C-0.96552734 5.40214844 -1.99355469 5.67929687 -3.05273438 5.96484375 C-10.68707666 8 -10.68707666 8 -13 8 C-13 6.02 -13 4.04 -13 2 C-8.49646738 0.24252386 -4.82360189 -0.19294408 0 0 Z " fill="#154889" transform="translate(1293,448)"/>
<path d="M0 0 C0 0.66 0 1.32 0 2 C-3.12394391 2.83732743 -6.24931974 3.66917982 -9.375 4.5 C-10.26445313 4.73847656 -11.15390625 4.97695313 -12.0703125 5.22265625 C-12.92109375 5.44824219 -13.771875 5.67382812 -14.6484375 5.90625 C-15.43395996 6.11572266 -16.21948242 6.32519531 -17.02880859 6.54101562 C-19 7 -19 7 -21 7 C-21 5.02 -21 3.04 -21 1 C-14.65804899 -1.81864489 -6.58946108 -2.19648703 0 0 Z " fill="#14488A" transform="translate(1269,457)"/>
<path d="M0 0 C2 1 2 1 3 3 C-6.11388497 6.70067035 -15.42536804 8.88976459 -25 11 C-25.33 10.34 -25.66 9.68 -26 9 C-25.236875 8.7525 -24.47375 8.505 -23.6875 8.25 C-20.89487508 7.24138886 -20.89487508 7.24138886 -19.66015625 4.92578125 C-18 3 -18 3 -15.546875 2.71484375 C-14.62390625 2.78832031 -13.7009375 2.86179687 -12.75 2.9375 C-7.54439308 3.158135 -4.62212411 2.26189052 0 0 Z " fill="#2C54A4" transform="translate(333,445)"/>
<path d="M0 0 C0.33 0.33 0.66 0.66 1 1 C2.99958364 1.04080783 5.00045254 1.04254356 7 1 C4.811636 3.188364 3.4227652 3.71634548 0.53515625 4.7265625 C-0.34720703 5.0359375 -1.22957031 5.3453125 -2.13867188 5.6640625 C-3.06228516 5.98117188 -3.98589844 6.29828125 -4.9375 6.625 C-5.85724609 6.94984375 -6.77699219 7.2746875 -7.72460938 7.609375 C-14.61021205 10 -14.61021205 10 -18 10 C-18 9.34 -18 8.68 -18 8 C-15.69 6.68 -13.38 5.36 -11 4 C-11 3.01 -11 2.02 -11 1 C-7.28738544 0.30928101 -3.78074281 -0.21604245 0 0 Z " fill="#174E94" transform="translate(23,120)"/>
<path d="M0 0 C1.084021 0.00523682 2.16804199 0.01047363 3.28491211 0.01586914 C5.03964844 0.02070312 5.03964844 0.02070312 6.82983398 0.02563477 C8.67738281 0.03820312 8.67738281 0.03820312 10.56225586 0.05102539 C12.41560547 0.05779297 12.41560547 0.05779297 14.30639648 0.06469727 C17.37089703 0.07652931 20.43530307 0.09301366 23.49975586 0.11352539 C23.16975586 0.77352539 22.83975586 1.43352539 22.49975586 2.11352539 C19.738035 2.75950731 17.04369321 3.28595372 14.24975586 3.73852539 C13.4853418 3.87258789 12.72092773 4.00665039 11.93334961 4.14477539 C8.08253186 4.79655456 4.42060648 5.28604282 0.49975586 5.11352539 C0.49975586 4.45352539 0.49975586 3.79352539 0.49975586 3.11352539 C-0.82024414 2.45352539 -2.14024414 1.79352539 -3.50024414 1.11352539 C-2.50024414 0.11352539 -2.50024414 0.11352539 0 0 Z " fill="#2B54A7" transform="translate(1150.500244140625,679.886474609375)"/>
<path d="M0 0 C0.99 0.33 1.98 0.66 3 1 C2.67 1.99 2.34 2.98 2 4 C-0.37436981 5.00230798 -2.60063139 5.78329338 -5.0625 6.5 C-5.76826172 6.71358154 -6.47402344 6.92716309 -7.20117188 7.1472168 C-14.69257231 9.33717636 -22.30551174 10.74146003 -30 12 C-29.67 11.01 -29.34 10.02 -29 9 C-27.02253397 8.26919734 -25.01927511 7.60578253 -23 7 C-22.01 6.34 -21.02 5.68 -20 5 C-19.67 5.33 -19.34 5.66 -19 6 C-15.54178598 6.25003964 -15.54178598 6.25003964 -12 6 C-11.34 5.34 -10.68 4.68 -10 4 C-7.6739143 3.61936779 -5.33944736 3.28730055 -3 3 C-2.01 2.67 -1.02 2.34 0 2 C0 1.34 0 0.68 0 0 Z " fill="#5776A9" transform="translate(798,900)"/>
<path d="M0 0 C0.33 0.66 0.66 1.32 1 2 C3.64 1.34 6.28 0.68 9 0 C8 3 8 3 5.80688477 4.25854492 C4.86127686 4.66177979 3.91566895 5.06501465 2.94140625 5.48046875 C1.91595703 5.92197266 0.89050781 6.36347656 -0.16601562 6.81835938 C-1.78540039 7.49608398 -1.78540039 7.49608398 -3.4375 8.1875 C-4.51322266 8.65091797 -5.58894531 9.11433594 -6.69726562 9.59179688 C-14.69324144 13 -14.69324144 13 -17 13 C-17 12.34 -17 11.68 -17 11 C-11.375 8 -11.375 8 -8 8 C-8 7.01 -8 6.02 -8 5 C-6.02 5 -4.04 5 -2 5 C-2 4.34 -2 3.68 -2 3 C-3.32 3.33 -4.64 3.66 -6 4 C-5.67 3.01 -5.34 2.02 -5 1 C-3.35 0.67 -1.7 0.34 0 0 Z " fill="#012B6B" transform="translate(1480,232)"/>
<path d="M0 0 C-8.32944663 2.56073374 -16.72208004 4.88270502 -25.125 7.1875 C-26.47659159 7.55913902 -27.82815429 7.9308831 -29.1796875 8.30273438 C-32.45284361 9.20285231 -35.7262855 10.10191546 -39 11 C-39 10.34 -39 9.68 -39 9 C-36.69 8.34 -34.38 7.68 -32 7 C-32 6.34 -32 5.68 -32 5 C-30.58366664 4.83052421 -29.16691467 4.66454493 -27.75 4.5 C-26.56664062 4.36078125 -26.56664062 4.36078125 -25.359375 4.21875 C-23 4 -23 4 -19 4 C-19 3.34 -19 2.68 -19 2 C-15.8517985 1.18324961 -12.69225353 0.49766484 -9.5 -0.125 C-8.5615625 -0.31320312 -7.623125 -0.50140625 -6.65625 -0.6953125 C-4.03374993 -0.99612869 -2.49633138 -0.70649634 0 0 Z " fill="#5776A7" transform="translate(911,869)"/>
<path d="M0 0 C0.66 0.33 1.32 0.66 2 1 C1.67 1.99 1.34 2.98 1 4 C2.65 3.67 4.3 3.34 6 3 C6 2.34 6 1.68 6 1 C16.55808656 -0.33257403 16.55808656 -0.33257403 21 1 C21 1.33 21 1.66 21 2 C16.9203558 3.03597967 12.83581059 4.05113854 8.75 5.0625 C7.01169922 5.50432617 7.01169922 5.50432617 5.23828125 5.95507812 C4.12324219 6.22900391 3.00820312 6.50292969 1.859375 6.78515625 C0.83295898 7.04176025 -0.19345703 7.29836426 -1.25097656 7.56274414 C-3.9334452 7.98941389 -5.46860856 7.89234196 -8 7 C-7.01 7 -6.02 7 -5 7 C-5.33 5.68 -5.66 4.36 -6 3 C-4.03533587 1.93224776 -2.03144641 0.93446535 0 0 Z " fill="#15498B" transform="translate(1408,416)"/>
<path d="M0 0 C1.76923828 0.01353516 1.76923828 0.01353516 3.57421875 0.02734375 C4.47785156 0.03894531 5.38148438 0.05054687 6.3125 0.0625 C4.93277697 2.82194605 3.58273896 2.85413433 0.69140625 3.82421875 C-0.24380859 4.13810547 -1.17902344 4.45199219 -2.14257812 4.77539062 C-3.12677734 5.09701172 -4.11097656 5.41863281 -5.125 5.75 C-6.10533203 6.08322266 -7.08566406 6.41644531 -8.09570312 6.75976562 C-9.50045898 7.22479492 -9.50045898 7.22479492 -10.93359375 7.69921875 C-12.22801392 8.12787231 -12.22801392 8.12787231 -13.54858398 8.56518555 C-15.6875 9.0625 -15.6875 9.0625 -17.6875 8.0625 C-15.2050644 4.21472482 -15.2050644 4.21472482 -12.5625 3.4375 C-11.94375 3.31375 -11.325 3.19 -10.6875 3.0625 C-10.3575 2.4025 -10.0275 1.7425 -9.6875 1.0625 C-6.26517028 -0.07827657 -3.60076783 -0.03565117 0 0 Z " fill="#022968" transform="translate(776.6875,127.9375)"/>
<path d="M0 0 C0.99 0.99 1.98 1.98 3 3 C3.66 3.33 4.32 3.66 5 4 C1.04846461 5.71708084 -2.85681974 6.76539898 -7.0625 7.6875 C-8.27035156 7.95949219 -9.47820312 8.23148437 -10.72265625 8.51171875 C-13.6640454 8.94994717 -15.26256603 9.01715127 -18 8 C-13.375 5 -13.375 5 -10 5 C-10 4.34 -10 3.68 -10 3 C-5.05 1.515 -5.05 1.515 0 0 Z " fill="#154B8E" transform="translate(1224,464)"/>
<path d="M0 0 C0.66386719 0.08378906 1.32773438 0.16757812 2.01171875 0.25390625 C8.54720848 1.05425042 8.54720848 1.05425042 15 0 C15.33 1.65 15.66 3.3 16 5 C13.89829344 5.53067341 11.79352402 6.04922857 9.6875 6.5625 C8.51574219 6.85253906 7.34398437 7.14257812 6.13671875 7.44140625 C3 8 3 8 0 7 C0.99 6.01 1.98 5.02 3 4 C2.2575 3.2884375 2.2575 3.2884375 1.5 2.5625 C0 1 0 1 0 0 Z " fill="#154889" transform="translate(1368,424)"/>
<path d="M0 0 C3.96 0 7.92 0 12 0 C12.33 0.66 12.66 1.32 13 2 C9.89878289 3.17461555 6.79357759 4.33830456 3.6875 5.5 C2.80642578 5.83386719 1.92535156 6.16773437 1.01757812 6.51171875 C0.17001953 6.82753906 -0.67753906 7.14335938 -1.55078125 7.46875 C-2.33106689 7.76201172 -3.11135254 8.05527344 -3.9152832 8.35742188 C-6 9 -6 9 -9 9 C-9 8.34 -9 7.68 -9 7 C-7.2421875 6.34895833 -5.484375 5.69791667 -3.7265625 5.046875 C-1.51314919 3.91454995 -1.51314919 3.91454995 0 0 Z " fill="#022B6A" transform="translate(793,120)"/>
<path d="M0 0 C0 0.66 0 1.32 0 2 C-2.55986879 2.84226 -5.12239015 3.67398551 -7.6875 4.5 C-8.7693457 4.85771484 -8.7693457 4.85771484 -9.87304688 5.22265625 C-13.69407657 6.44398994 -16.93442056 7.32075577 -21 7 C-21 5.35 -21 3.7 -21 2 C-13.4822695 0.87234043 -13.4822695 0.87234043 -10.875 1.5625 C-7.19018068 2.42229117 -3.82926052 0 0 0 Z " fill="#022D6F" transform="translate(885,96)"/>
<path d="M0 0 C1.4540625 0.0309375 1.4540625 0.0309375 2.9375 0.0625 C-3.54391232 6.54391232 -18.20278581 6.10682017 -27.0625 7.0625 C-23.3449606 2.53293835 -17.5701278 2.0569328 -12.0625 1.0625 C-9.35940438 0.89981369 -6.77249173 0.96023616 -4.0625 1.0625 C-3.0625 0.0625 -3.0625 0.0625 0 0 Z " fill="#3663BA" transform="translate(465.0625,409.9375)"/>
<path d="M0 0 C0.9178125 0.01353516 1.835625 0.02707031 2.78125 0.04101562 C5.02146803 0.07601903 7.26040594 0.12511131 9.5 0.1875 C3.35645008 6.33104992 -12.03656449 4.77936479 -20.5 5.1875 C-14.91098741 -0.40151259 -7.37935459 -0.20915322 0 0 Z " fill="#174F95" transform="translate(416.5,303.8125)"/>
<path d="M0 0 C0.66 0.66 1.32 1.32 2 2 C-0.87245978 2.84306996 -3.7474459 3.67465502 -6.625 4.5 C-7.83736328 4.85771484 -7.83736328 4.85771484 -9.07421875 5.22265625 C-13.50433836 6.48325939 -17.34308157 7.30141867 -22 7 C-19.44420449 3.87624993 -16.81222465 3.12124254 -13 2 C-12.030625 1.62875 -11.06125 1.2575 -10.0625 0.875 C-6.54566893 -0.12980888 -3.64057126 -0.28004394 0 0 Z " fill="#154889" transform="translate(1358,433)"/>
<path d="M0 0 C1.69752187 0.25245197 3.38471545 0.57645775 5.0625 0.9375 C5.98160156 1.13214844 6.90070313 1.32679688 7.84765625 1.52734375 C8.91306641 1.76130859 8.91306641 1.76130859 10 2 C2.65352512 5.96322987 -5.87543545 5.12186847 -14 5 C-10.25 3 -10.25 3 -8 3 C-8 2.34 -8 1.68 -8 1 C-6.865625 1.020625 -5.73125 1.04125 -4.5625 1.0625 C-1.18424326 1.41577477 -1.18424326 1.41577477 0 0 Z " fill="#174F98" transform="translate(1182,473)"/>
<path d="M0 0 C1.134375 0.020625 2.26875 0.04125 3.4375 0.0625 C2.4375 2.0625 2.4375 2.0625 0.61157227 2.74853516 C-0.16645752 2.94753418 -0.9444873 3.1465332 -1.74609375 3.3515625 C-2.59107422 3.57070313 -3.43605469 3.78984375 -4.30664062 4.015625 C-5.19544922 4.23734375 -6.08425781 4.4590625 -7 4.6875 C-7.88494141 4.91695313 -8.76988281 5.14640625 -9.68164062 5.3828125 C-16.24541946 7.0625 -16.24541946 7.0625 -18.5625 7.0625 C-17.41076645 4.59449953 -16.51466435 3.01466435 -14.5625 1.0625 C-12.21484375 0.90234375 -12.21484375 0.90234375 -9.5 1 C-7.85493023 1.05428494 -6.20833976 1.08281901 -4.5625 1.0625 C-3.5625 0.0625 -3.5625 0.0625 0 0 Z " fill="#134582" transform="translate(1330.5625,439.9375)"/>
<path d="M0 0 C4.29 0 8.58 0 13 0 C13 0.66 13 1.32 13 2 C6.38239489 4.27204442 -0.17973243 6.4260921 -7 8 C-7.33 7.34 -7.66 6.68 -8 6 C-6.20963542 5.0234375 -4.41927083 4.046875 -2.62890625 3.0703125 C-0.83381685 2.08589976 -0.83381685 2.08589976 0 0 Z " fill="#022A67" transform="translate(816,113)"/>
<path d="M0 0 C1.21236328 0.01353516 1.21236328 0.01353516 2.44921875 0.02734375 C3.37154297 0.04474609 3.37154297 0.04474609 4.3125 0.0625 C3.9825 1.0525 3.6525 2.0425 3.3125 3.0625 C3.9725 3.3925 4.6325 3.7225 5.3125 4.0625 C-0.14211169 5.44779821 -5.05468401 6.3021943 -10.6875 6.0625 C-10.6875 5.4025 -10.6875 4.7425 -10.6875 4.0625 C-9.6975 3.7325 -8.7075 3.4025 -7.6875 3.0625 C-7.6875 2.4025 -7.6875 1.7425 -7.6875 1.0625 C-4.80538698 0.10179566 -2.98899956 -0.04331883 0 0 Z " fill="#174D94" transform="translate(1455.6875,407.9375)"/>
<path d="M0 0 C2.31 0 4.62 0 7 0 C7.33 0.99 7.66 1.98 8 3 C9.20398437 2.89300781 10.40796875 2.78601563 11.6484375 2.67578125 C13.22389535 2.55387082 14.79942001 2.43282162 16.375 2.3125 C17.56609375 2.20325195 17.56609375 2.20325195 18.78125 2.09179688 C21.0859375 1.92578125 21.0859375 1.92578125 25 2 C25.99 3.485 25.99 3.485 27 5 C17.95971078 5.1723784 9.01134307 4.6331684 0 4 C0 2.68 0 1.36 0 0 Z " fill="#1B5AAD" transform="translate(1536,402)"/>
<path d="M0 0 C0.99 0.33 1.98 0.66 3 1 C2.67 2.32 2.34 3.64 2 5 C7.445 4.01 7.445 4.01 13 3 C12.67 2.34 12.34 1.68 12 1 C13.65 1 15.3 1 17 1 C17.33 2.32 17.66 3.64 18 5 C15.91952703 5.5321441 13.83547707 6.05031786 11.75 6.5625 C10.58984375 6.85253906 9.4296875 7.14257812 8.234375 7.44140625 C5.27909017 7.95179964 3.75565899 8.02996165 1 7 C0 2.25 0 2.25 0 0 Z " fill="#174F97" transform="translate(608,256)"/>
<path d="M0 0 C2.97 0 5.94 0 9 0 C9 0.66 9 1.32 9 2 C10.32 2 11.64 2 13 2 C13 2.66 13 3.32 13 4 C8.48184719 4.88277755 4.22487306 5.10589503 -0.375 5.0625 C-2.24285156 5.04896484 -2.24285156 5.04896484 -4.1484375 5.03515625 C-5.55996094 5.01775391 -5.55996094 5.01775391 -7 5 C-7 4.67 -7 4.34 -7 4 C-4.36 4 -1.72 4 1 4 C0.67 2.68 0.34 1.36 0 0 Z " fill="#6789BD" transform="translate(687,921)"/>
<path d="M0 0 C3.65316671 1.24976756 4.78065836 1.67098753 7 5 C7.36476189 6.46715338 7.67390918 7.94883948 7.9375 9.4375 C8.65599573 12.96675104 9.44965508 15.33373031 12 18 C11.01 18 10.02 18 9 18 C7.68144905 15.75335738 6.37006028 13.50302694 5.0625 11.25 C4.68931641 10.61578125 4.31613281 9.9815625 3.93164062 9.328125 C2.14463236 6.23708368 0.75114727 3.48532332 0 0 Z " fill="#7CA6EB" transform="translate(336,773)"/>
<path d="M0 0 C0.33 0.99 0.66 1.98 1 3 C1.78375 2.79375 2.5675 2.5875 3.375 2.375 C4.674375 2.189375 4.674375 2.189375 6 2 C6.66 2.66 7.32 3.32 8 4 C5.75376301 4.69969682 3.50283586 5.38435043 1.25 6.0625 C-0.00296875 6.44535156 -1.2559375 6.82820313 -2.546875 7.22265625 C-5.6738008 7.92656828 -7.09466046 8.16653785 -10 7 C-9.34 7 -8.68 7 -8 7 C-8 5.35 -8 3.7 -8 2 C-6.68 2 -5.36 2 -4 2 C-4 2.66 -4 3.32 -4 4 C-3.01 3.67 -2.02 3.34 -1 3 C-0.67 2.01 -0.34 1.02 0 0 Z " fill="#175098" transform="translate(40,113)"/>
<path d="M0 0 C-2.7703308 2.7703308 -6.02317089 3.40962254 -9.6875 4.5 C-10.38294922 4.71269531 -11.07839844 4.92539062 -11.79492188 5.14453125 C-16.18243695 6.48004004 -20.58723227 7.75077611 -25 9 C-22.070023 5.5816935 -18.30266569 3.55822199 -13.9375 2.5 C-11.81674783 2.07403474 -11.81674783 2.07403474 -9.6875 0.375 C-6.11436334 -1.45311643 -3.84295379 -0.82887239 0 0 Z " fill="#5875A2" transform="translate(856,885)"/>
<path d="M0 0 C0.33 0.99 0.66 1.98 1 3 C-1.56076097 3.67404284 -4.12326583 4.339414 -6.6875 5 C-7.40873047 5.19078125 -8.12996094 5.3815625 -8.87304688 5.578125 C-12.66850961 6.54865428 -16.04615439 7.24955239 -20 7 C-19 5 -19 5 -16 4 C-15.34 3.34 -14.68 2.68 -14 2 C-12.68 2 -11.36 2 -10 2 C-9.195625 1.67 -8.39125 1.34 -7.5625 1 C-4.84160657 -0.06181207 -2.89113266 -0.16520758 0 0 Z " fill="#2D58AD" transform="translate(431,416)"/>
<path d="M0 0 C-11.52164009 5.55580866 -11.52164009 5.55580866 -17 6 C-16.67 4.35 -16.34 2.7 -16 1 C-13.92446352 0.4465236 -12.15634036 0 -10 0 C-8.865625 -0.185625 -7.73125 -0.37125 -6.5625 -0.5625 C-3 -1 -3 -1 0 0 Z " fill="#022C6D" transform="translate(1381,281)"/>
<path d="M0 0 C-2.88417628 2.88417628 -6.32839431 3.24422355 -10.1875 4.125 C-10.93064453 4.30675781 -11.67378906 4.48851562 -12.43945312 4.67578125 C-17.07556502 5.75659261 -21.24205942 6.18905724 -26 6 C-26 5.34 -26 4.68 -26 4 C-22.60563644 3.32570033 -19.20929807 2.6619172 -15.8125 2 C-14.37293945 1.71382812 -14.37293945 1.71382812 -12.90429688 1.421875 C-11.97294922 1.24140625 -11.04160156 1.0609375 -10.08203125 0.875 C-8.80162964 0.62363281 -8.80162964 0.62363281 -7.49536133 0.3671875 C-4.95954897 -0.00595229 -2.55918603 -0.06412996 0 0 Z " fill="#607FB0" transform="translate(754,914)"/>
<path d="M0 0 C1.98 0 3.96 0 6 0 C6 0.33 6 0.66 6 1 C8.64 1.33 11.28 1.66 14 2 C14 2.66 14 3.32 14 4 C11.39555652 4.05394705 8.79223002 4.09364469 6.1875 4.125 C5.44951172 4.14175781 4.71152344 4.15851563 3.95117188 4.17578125 C0.08753574 4.21074628 -1.70903668 4.19397555 -5 2 C-3.35 2 -1.7 2 0 2 C0 1.34 0 0.68 0 0 Z " fill="#1854A0" transform="translate(362,306)"/>
<path d="M0 0 C3.465 1.485 3.465 1.485 7 3 C6.01 4.485 6.01 4.485 5 6 C2.24882096 6.11076564 -0.21460301 6.04958602 -2.9375 5.8125 C-3.66646484 5.76802734 -4.39542969 5.72355469 -5.14648438 5.67773438 C-8.84707658 5.4029883 -10.859592 5.09360533 -14 3 C-10.37 3.33 -6.74 3.66 -3 4 C-3 3.34 -3 2.68 -3 2 C-2.01 2 -1.02 2 0 2 C0 1.34 0 0.68 0 0 Z " fill="#6C91D0" transform="translate(107,568)"/>
<path d="M0 0 C0.89203125 0.00902344 1.7840625 0.01804687 2.703125 0.02734375 C3.37859375 0.03894531 4.0540625 0.05054688 4.75 0.0625 C4.09 0.7225 3.43 1.3825 2.75 2.0625 C5.06 2.7225 7.37 3.3825 9.75 4.0625 C9.75 4.3925 9.75 4.7225 9.75 5.0625 C5.79 5.0625 1.83 5.0625 -2.25 5.0625 C-1.59 4.7325 -0.93 4.4025 -0.25 4.0625 C-0.25 3.4025 -0.25 2.7425 -0.25 2.0625 C-4.705 2.5575 -4.705 2.5575 -9.25 3.0625 C-9.25 2.4025 -9.25 1.7425 -9.25 1.0625 C-6.09493858 0.12630187 -3.28413498 -0.0432123 0 0 Z " fill="#2D56A9" transform="translate(1056.25,695.9375)"/>
<path d="M0 0 C0.90492188 0.02320313 1.80984375 0.04640625 2.7421875 0.0703125 C4.10730469 0.09738281 4.10730469 0.09738281 5.5 0.125 C6.19867187 0.14820313 6.89734375 0.17140625 7.6171875 0.1953125 C7.9471875 0.8553125 8.2771875 1.5153125 8.6171875 2.1953125 C6.57607208 2.67682192 4.53426818 3.15541333 2.4921875 3.6328125 C1.35523438 3.89964844 0.21828125 4.16648437 -0.953125 4.44140625 C-4.08742554 5.1303812 -7.21298976 5.69912444 -10.3828125 6.1953125 C-10.0528125 5.2053125 -9.7228125 4.2153125 -9.3828125 3.1953125 C-8.5990625 3.0715625 -7.8153125 2.9478125 -7.0078125 2.8203125 C-3.90176822 2.08077815 -3.14465187 0.25775835 0 0 Z " fill="#154A8C" transform="translate(593.3828125,263.8046875)"/>
<path d="M0 0 C1.32 0 2.64 0 4 0 C4 0.66 4 1.32 4 2 C1.89748139 2.67184618 -0.20707763 3.33730968 -2.3125 4 C-4.07013672 4.556875 -4.07013672 4.556875 -5.86328125 5.125 C-9 6 -9 6 -12 6 C-12 5.34 -12 4.68 -12 4 C-10.35 3.67 -8.7 3.34 -7 3 C-7 2.34 -7 1.68 -7 1 C-5.5459375 1.0309375 -5.5459375 1.0309375 -4.0625 1.0625 C-1.12534105 1.35618499 -1.12534105 1.35618499 0 0 Z " fill="#043173" transform="translate(753,136)"/>
<path d="M0 0 C5.94 0 11.88 0 18 0 C18.33 0.99 18.66 1.98 19 3 C13.06 2.67 7.12 2.34 1 2 C0.67 1.34 0.34 0.68 0 0 Z " fill="#1B5DB1" transform="translate(124,105)"/>
<path d="M0 0 C2.31 0.33 4.62 0.66 7 1 C1.74396906 5.47735969 -3.40677012 5.11174966 -10 5 C-9.67 4.34 -9.34 3.68 -9 3 C-6.93359375 2.3671875 -6.93359375 2.3671875 -4.4375 1.875 C-3.61121094 1.70742187 -2.78492188 1.53984375 -1.93359375 1.3671875 C-1.29550781 1.24601563 -0.65742187 1.12484375 0 1 C0 0.67 0 0.34 0 0 Z " fill="#012A6C" transform="translate(706,146)"/>
<path d="M0 0 C0 0.33 0 0.66 0 1 C-4.4378561 2.11165232 -8.76956386 2.11527763 -13.3125 2.0625 C-14.05306641 2.05798828 -14.79363281 2.05347656 -15.55664062 2.04882812 C-17.37112899 2.03712175 -19.18557534 2.01918898 -21 2 C-21 1.34 -21 0.68 -21 0 C-6.21867882 -1.33257403 -6.21867882 -1.33257403 0 0 Z " fill="#022E75" transform="translate(1309,301)"/>
<path d="M0 0 C0 0.33 0 0.66 0 1 C1.65 1 3.3 1 5 1 C5 0.34 5 -0.32 5 -1 C7.475 -0.01 7.475 -0.01 10 1 C10 1.33 10 1.66 10 2 C8.43883181 2.33951619 6.87598662 2.67132544 5.3125 3 C4.00732422 3.2784375 4.00732422 3.2784375 2.67578125 3.5625 C0.06287036 3.98972047 -2.35813038 4.07616201 -5 4 C-4.34 3.67 -3.68 3.34 -3 3 C-3 2.34 -3 1.68 -3 1 C-3.99 0.67 -4.98 0.34 -6 0 C-3.50907189 -1.24546405 -2.58919267 -0.7767578 0 0 Z " fill="#1956A3" transform="translate(75,107)"/>
<path d="M0 0 C6.1105424 -0.11269443 11.95170514 0.10395632 18 1 C18 1.33 18 1.66 18 2 C11.61773055 2.82351864 5.43255401 3.12086218 -1 3 C-0.67 2.01 -0.34 1.02 0 0 Z " fill="#3661B4" transform="translate(964,712)"/>
<path d="M0 0 C0.33 0.66 0.66 1.32 1 2 C2.32 2 3.64 2 5 2 C5 1.34 5 0.68 5 0 C5.99 0 6.98 0 8 0 C8 0.99 8 1.98 8 3 C4.49408652 5.68099266 1.34159496 6.49516338 -3 7 C-3 6.34 -3 5.68 -3 5 C-2.34 5 -1.68 5 -1 5 C-0.67 3.35 -0.34 1.7 0 0 Z " fill="#022B69" transform="translate(1443,248)"/>
<path d="M0 0 C0.66 0.33 1.32 0.66 2 1 C2.33333333 3.33333333 2.66666667 5.66666667 3 8 C3.50840238 9.44959858 4.05045005 10.88782411 4.625 12.3125 C5.07875 13.529375 5.5325 14.74625 6 16 C5.67 16.66 5.34 17.32 5 18 C2.69 13.05 0.38 8.1 -2 3 C-1.34 2.67 -0.68 2.34 0 2 C0 1.34 0 0.68 0 0 Z " fill="#4079EA" transform="translate(765,528)"/>
<path d="M0 0 C1.32 0.33 2.64 0.66 4 1 C4 1.99 4 2.98 4 4 C4.639375 4.45375 5.27875 4.9075 5.9375 5.375 C8.57987335 7.45686991 8.60113223 8.72928431 9 12 C9.32483418 13.33542939 9.6550855 14.66961551 10 16 C5.86876658 12.34544736 2.65954719 7.81378042 0 3 C0 2.01 0 1.02 0 0 Z " fill="#3F77E9" transform="translate(744,496)"/>
<path d="M0 0 C-6.93 1.32 -13.86 2.64 -21 4 C-21 3.34 -21 2.68 -21 2 C-19.12577848 1.51779737 -17.25058246 1.03938167 -15.375 0.5625 C-13.80878906 0.16224609 -13.80878906 0.16224609 -12.2109375 -0.24609375 C-3.4534413 -2.3022942 -3.4534413 -2.3022942 0 0 Z " fill="#5F7FB0" transform="translate(933,865)"/>
<path d="M0 0 C2.99332739 0.9977758 3.94766315 1.7522025 6 4 C-3.41002278 6.29612756 -3.41002278 6.29612756 -8 6 C-8.33 5.34 -8.66 4.68 -9 4 C-6.03 3.01 -3.06 2.02 0 1 C0 0.67 0 0.34 0 0 Z " fill="#174C91" transform="translate(453,296)"/>
<path d="M0 0 C0.99 0.33 1.98 0.66 3 1 C2.67 1.99 2.34 2.98 2 4 C-0.14453125 4.984375 -0.14453125 4.984375 -2.8125 5.75 C-3.68519531 6.01296875 -4.55789063 6.2759375 -5.45703125 6.546875 C-8.05434119 7.00968292 -9.53376528 6.85082224 -12 6 C-9.22917166 3.22917166 -6.81929143 3.46903579 -3 3 C-2.01 2.67 -1.02 2.34 0 2 C0 1.34 0 0.68 0 0 Z " fill="#5775A6" transform="translate(798,900)"/>
<path d="M0 0 C0.66 0.33 1.32 0.66 2 1 C2 1.66 2 2.32 2 3 C3.32 2.34 4.64 1.68 6 1 C6.103125 1.639375 6.20625 2.27875 6.3125 2.9375 C6.6528125 3.9584375 6.6528125 3.9584375 7 5 C7.99 5.33 8.98 5.66 10 6 C10 6.66 10 7.32 10 8 C6.98782888 7.35550393 4.48344164 6.34977818 1.75 4.9375 C1.04359375 4.57527344 0.3371875 4.21304688 -0.390625 3.83984375 C-0.92171875 3.56269531 -1.4528125 3.28554688 -2 3 C-2 2.34 -2 1.68 -2 1 C-1.34 0.67 -0.68 0.34 0 0 Z " fill="#779FDF" transform="translate(442,880)"/>
<path d="M0 0 C2.64 0.66 5.28 1.32 8 2 C8.33 3.32 8.66 4.64 9 6 C8.01 7.485 8.01 7.485 7 9 C5.82737096 7.88121617 4.66204862 6.75476949 3.5 5.625 C2.8503125 4.99851562 2.200625 4.37203125 1.53125 3.7265625 C0 2 0 2 0 0 Z " fill="#7AA3EA" transform="translate(263,643)"/>
<path d="M0 0 C0.99 0 1.98 0 3 0 C3.33 0.66 3.66 1.32 4 2 C6.02463255 2.65213292 6.02463255 2.65213292 8 3 C8 4.32 8 5.64 8 7 C8.99 7.33 9.98 7.66 11 8 C11.6875 10.0625 11.6875 10.0625 12 12 C7.47384007 8.32167983 3.60575001 4.58913637 0 0 Z " fill="#437BE8" transform="translate(720,470)"/>
<path d="M0 0 C1.98 0.495 1.98 0.495 4 1 C3.79375 1.515625 3.5875 2.03125 3.375 2.5625 C2.84112974 6.03265671 3.92323239 8.70635791 5 12 C4.34 12 3.68 12 3 12 C2.30062798 10.5682384 1.61587282 9.12932968 0.9375 7.6875 C0.55464844 6.88699219 0.17179687 6.08648438 -0.22265625 5.26171875 C-1 3 -1 3 0 0 Z " fill="#3F79EC" transform="translate(1515,770)"/>
<path d="M0 0 C1.010625 0.0825 2.02125 0.165 3.0625 0.25 C3.7225 1.24 4.3825 2.23 5.0625 3.25 C-0.2175 3.91 -5.4975 4.57 -10.9375 5.25 C-8.70827045 3.02077045 -6.84614722 2.36871047 -3.9375 1.25 C-2.9375 0.25 -2.9375 0.25 0 0 Z " fill="#345CAC" transform="translate(1024.9375,703.75)"/>
<path d="M0 0 C0.66 0.33 1.32 0.66 2 1 C2 3.31 2 5.62 2 8 C2.66 8.33 3.32 8.66 4 9 C3.67 9.99 3.34 10.98 3 12 C0.4375 9.875 0.4375 9.875 -2 7 C-1.8 1.8 -1.8 1.8 0 0 Z " fill="#7BA5EB" transform="translate(1237,928)"/>
<path d="M0 0 C0 0.99 0 1.98 0 3 C-4.00200378 4.60080151 -7.04556236 3.29279692 -11 2 C-7.36576791 -0.32590854 -4.22911669 -0.16265833 0 0 Z " fill="#698FCC" transform="translate(576,921)"/>
<path d="M0 0 C2.475 0.99 2.475 0.99 5 2 C1.79989612 3.8133922 -1.13283843 4.52213974 -4.75 5.125 C-5.73484375 5.29257812 -6.7196875 5.46015625 -7.734375 5.6328125 C-8.48203125 5.75398438 -9.2296875 5.87515625 -10 6 C-9.34 5.67 -8.68 5.34 -8 5 C-7.67 4.34 -7.34 3.68 -7 3 C-4.67843403 2.59270772 -2.3431213 2.25561323 0 2 C0 1.34 0 0.68 0 0 Z " fill="#154988" transform="translate(519,282)"/>
<path d="M0 0 C1.51400391 0.01740234 1.51400391 0.01740234 3.05859375 0.03515625 C4.07050781 0.04417969 5.08242188 0.05320312 6.125 0.0625 C7.29869141 0.07990234 7.29869141 0.07990234 8.49609375 0.09765625 C6.07479044 2.51895956 4.69497998 2.62606129 1.37109375 3.22265625 C0.00597656 3.47402344 0.00597656 3.47402344 -1.38671875 3.73046875 C-2.08539062 3.85164063 -2.7840625 3.9728125 -3.50390625 4.09765625 C-3.50390625 0.13665781 -3.50390625 0.13665781 0 0 Z " fill="#154786" transform="translate(561.50390625,271.90234375)"/>
<path d="M0 0 C0.66 0.33 1.32 0.66 2 1 C1.979375 2.19625 1.95875 3.3925 1.9375 4.625 C1.93117429 8.18004869 2.30111125 11.50555624 3 15 C0.97803833 12.97803833 0.32448642 11.74135514 -0.6875 9.125 C-0.95949219 8.44695313 -1.23148438 7.76890625 -1.51171875 7.0703125 C-2.07877813 4.66598075 -1.82401421 3.3072398 -1 1 C-0.67 0.67 -0.34 0.34 0 0 Z " fill="#3F78EC" transform="translate(1524,785)"/>
<path d="M0 0 C1.98 0.99 1.98 0.99 4 2 C3.835 3.03125 3.67 4.0625 3.5 5.125 C3.06678152 8.48244326 2.91764297 11.62336157 3 15 C0.22957891 12.22957891 0.60203894 10.23466195 0.375 6.375 C0.30023437 5.18648437 0.22546875 3.99796875 0.1484375 2.7734375 C0.09945312 1.85820313 0.05046875 0.94296875 0 0 Z " fill="#4179E9" transform="translate(788,615)"/>
<path d="M0 0 C0 0.66 0 1.32 0 2 C-1.74635165 2.53293835 -3.49727652 3.05090663 -5.25 3.5625 C-6.22453125 3.85253906 -7.1990625 4.14257812 -8.203125 4.44140625 C-10.96243932 4.99249836 -12.3912824 4.93789609 -15 4 C-10.03222204 1.71482214 -5.56911579 0 0 0 Z " fill="#315DB3" transform="translate(453,412)"/>
<path d="M0 0 C-2.38125464 2.38125464 -4.33857567 3.00186241 -7.5 4.125 C-8.4796875 4.47820312 -9.459375 4.83140625 -10.46875 5.1953125 C-13 6 -13 6 -15 6 C-15 5.34 -15 4.68 -15 4 C-9.90028754 0.45853301 -6.12712599 -0.13925286 0 0 Z " fill="#022C6D" transform="translate(1533,216)"/>
<path d="M0 0 C2.625 0.375 2.625 0.375 5 1 C5 1.99 5 2.98 5 4 C6.65 4.33 8.3 4.66 10 5 C7.5332355 5.88336837 6.36140628 6.1312406 3.859375 5.22265625 C3.16328125 4.83980469 2.4671875 4.45695313 1.75 4.0625 C1.04359375 3.68222656 0.3371875 3.30195312 -0.390625 2.91015625 C-0.92171875 2.60980469 -1.4528125 2.30945313 -2 2 C-1.34 1.34 -0.68 0.68 0 0 Z " fill="#78A0E2" transform="translate(1164,881)"/>
<path d="M0 0 C4.55105375 0.54179211 8.06386006 1.62000841 12 4 C12.33 4.99 12.66 5.98 13 7 C8.1725201 5.58707905 4.2837641 3.57025846 0 1 C0 0.67 0 0.34 0 0 Z " fill="#78A0DE" transform="translate(191,594)"/>
<path d="M0 0 C1.00289062 0.28746094 2.00578125 0.57492187 3.0390625 0.87109375 C3.80992187 1.09925781 4.58078125 1.32742188 5.375 1.5625 C5.375 2.5525 5.375 3.5425 5.375 4.5625 C3.58120902 4.11255243 1.79001072 3.65225857 0 3.1875 C-0.99773438 2.93226563 -1.99546875 2.67703125 -3.0234375 2.4140625 C-5.625 1.5625 -5.625 1.5625 -7.625 -0.4375 C-4.72405209 -1.88797396 -3.06527404 -0.89106803 0 0 Z " fill="#3F73D9" transform="translate(641.625,419.4375)"/>
<path d="M0 0 C1.1446875 0.2475 1.1446875 0.2475 2.3125 0.5 C5.03596236 1.09145396 5.03596236 1.09145396 8 1 C7.67 1.99 7.34 2.98 7 4 C7.99 4.66 8.98 5.32 10 6 C10 6.66 10 7.32 10 8 C6.05205855 6.32971708 3.18203882 3.8204435 0 1 C0 0.67 0 0.34 0 0 Z " fill="#7BA3E7" transform="translate(241,624)"/>
<path d="M0 0 C0 2.31 0 4.62 0 7 C-2.03833424 5.7260411 -4.03852126 4.38938077 -6 3 C-6 2.34 -6 1.68 -6 1 C-4 0 -4 0 0 0 Z " fill="#79A3E8" transform="translate(240,617)"/>
<path d="M0 0 C1.32 0.33 2.64 0.66 4 1 C4 1.99 4 2.98 4 4 C0.62902617 5.49821059 -1.20442119 6 -5 6 C-4 3 -4 3 -1.9375 1.8125 C-1.298125 1.544375 -0.65875 1.27625 0 1 C0 0.67 0 0.34 0 0 Z " fill="#022C6D" transform="translate(847,104)"/>
<path d="M0 0 C0.99 0 1.98 0 3 0 C3 0.99 3 1.98 3 3 C4.32 3 5.64 3 7 3 C7.33 4.98 7.66 6.96 8 9 C6.84775972 8.07038578 5.70340824 7.1309875 4.5625 6.1875 C3.60537109 5.40439453 3.60537109 5.40439453 2.62890625 4.60546875 C1 3 1 3 0 0 Z " fill="#7BA4E9" transform="translate(272,653)"/>
<path d="M0 0 C1.20076172 0.06960938 1.20076172 0.06960938 2.42578125 0.140625 C3.23402344 0.17671875 4.04226563 0.2128125 4.875 0.25 C5.79732422 0.31960938 5.79732422 0.31960938 6.73828125 0.390625 C6.40828125 1.050625 6.07828125 1.710625 5.73828125 2.390625 C3.234375 3.0234375 3.234375 3.0234375 0.17578125 3.515625 C-1.34208984 3.76699219 -1.34208984 3.76699219 -2.890625 4.0234375 C-4.06431641 4.20519531 -4.06431641 4.20519531 -5.26171875 4.390625 C-2.89519796 0.50003419 -2.89519796 0.50003419 0 0 Z " fill="#2C55A8" transform="translate(295.26171875,455.609375)"/>
<path d="M0 0 C-0.33 0.66 -0.66 1.32 -1 2 C-8.64288227 4.38056989 -8.64288227 4.38056989 -13 3 C-9.39091002 -0.60908998 -4.88215348 -0.11353845 0 0 Z " fill="#144786" transform="translate(537,280)"/>
<path d="M0 0 C1.65 0 3.3 0 5 0 C5.33 1.32 5.66 2.64 6 4 C1.38 4.33 -3.24 4.66 -8 5 C-4.71299843 3.35649921 -2.52069985 2.58678331 1 2 C0.67 1.34 0.34 0.68 0 0 Z " fill="#144B8C" transform="translate(620,257)"/>
<path d="M0 0 C1.79232337 0.30871122 3.58384321 0.62209064 5.375 0.9375 C6.87160156 1.19853516 6.87160156 1.19853516 8.3984375 1.46484375 C11 2 11 2 13 3 C13 3.66 13 4.32 13 5 C11.58194169 4.71517632 10.16559621 4.42181856 8.75 4.125 C7.96109375 3.96257813 7.1721875 3.80015625 6.359375 3.6328125 C4.03168856 3.00849925 2.10968048 2.15161458 0 1 C0 0.67 0 0.34 0 0 Z " fill="#779CD8" transform="translate(498,907)"/>
<path d="M0 0 C1.32 0 2.64 0 4 0 C4.33 2.97 4.66 5.94 5 9 C1.89448334 5.89448334 1.18676066 4.10801767 0 0 Z " fill="#3F78EC" transform="translate(754,512)"/>
<path d="M0 0 C1.4384798 0.06423833 2.87666999 0.14163547 4.3125 0.25 C0.62077405 3.78790403 -2.78140595 3.84115883 -7.6875 4.25 C-5.84004374 0.30875998 -4.09551026 -0.02575793 0 0 Z " fill="#144887" transform="translate(1391.6875,423.75)"/>
<path d="M0 0 C0.33 0.99 0.66 1.98 1 3 C-2.3 3.33 -5.6 3.66 -9 4 C-6.3515138 0.02727069 -4.69305063 -1.56435021 0 0 Z " fill="#164E93" transform="translate(657,252)"/>
<path d="M0 0 C1.11375 0.185625 2.2275 0.37125 3.375 0.5625 C6.82568861 1.31680657 6.82568861 1.31680657 9 0 C9 0.99 9 1.98 9 3 C6.03 3.66 3.06 4.32 0 5 C0 3.35 0 1.7 0 0 Z " fill="#012C6E" transform="translate(1536,210)"/>
<path d="M0 0 C-0.33 0.99 -0.66 1.98 -1 3 C0.32 3.33 1.64 3.66 3 4 C0.03 3.67 -2.94 3.34 -6 3 C-6 2.01 -6 1.02 -6 0 C-3 -1 -3 -1 0 0 Z " fill="#1B5DB1" transform="translate(1790,777)"/>
<path d="M0 0 C3.54560339 -0.0805819 6.59593529 0.01172315 10 1 C11.66519519 1.34060811 13.33157466 1.67558396 15 2 C15 2.33 15 2.66 15 3 C4.44191344 3.3690205 4.44191344 3.3690205 0 1 C0 0.67 0 0.34 0 0 Z " fill="#1C5DB3" transform="translate(1078,472)"/>
<path d="M0 0 C-3.42094242 2.28062828 -4.68187222 2.21925007 -8.6875 2.125 C-10.17830078 2.09792969 -10.17830078 2.09792969 -11.69921875 2.0703125 C-12.45847656 2.04710937 -13.21773437 2.02390625 -14 2 C-9.67824205 -0.88117196 -4.98826624 -1.79577585 0 0 Z " fill="#2F5BB1" transform="translate(1230,673)"/>
<path d="M0 0 C2.475 0.99 2.475 0.99 5 2 C5.33 1.34 5.66 0.68 6 0 C6 0.66 6 1.32 6 2 C6.66 2 7.32 2 8 2 C8 2.99 8 3.98 8 5 C2.46153846 4.38461538 2.46153846 4.38461538 0.125 2.4375 C-0.24625 1.963125 -0.6175 1.48875 -1 1 C-0.67 0.67 -0.34 0.34 0 0 Z " fill="#1C5FB5" transform="translate(315,297)"/>
<path d="M0 0 C2.64 0 5.28 0 8 0 C8 1.65 8 3.3 8 5 C2.25 3.375 2.25 3.375 0 0 Z " fill="#769FE2" transform="translate(425,872)"/>
<path d="M0 0 C2.9375 0.8125 2.9375 0.8125 6 2 C6.33 2.99 6.66 3.98 7 5 C7.99 5.33 8.98 5.66 10 6 C9.67 6.66 9.34 7.32 9 8 C7.49460339 7.05016642 5.99579653 6.08988109 4.5 5.125 C3.6646875 4.59132813 2.829375 4.05765625 1.96875 3.5078125 C1.3190625 3.01023437 0.669375 2.51265625 0 2 C0 1.34 0 0.68 0 0 Z " fill="#4379E4" transform="translate(1452,707)"/>
<path d="M0 0 C-2.49505962 2.49505962 -3.67328888 2.35948376 -7.125 2.625 C-8.03507812 2.69976563 -8.94515625 2.77453125 -9.8828125 2.8515625 C-10.93082031 2.92503906 -10.93082031 2.92503906 -12 3 C-12 2.34 -12 1.68 -12 1 C-3.96428571 -1.27678571 -3.96428571 -1.27678571 0 0 Z " fill="#3259A8" transform="translate(1124,689)"/>
<path d="M0 0 C2.31 0 4.62 0 7 0 C7.33 0.99 7.66 1.98 8 3 C5.69 3 3.38 3 1 3 C0.67 2.01 0.34 1.02 0 0 Z " fill="#1854A2" transform="translate(1536,402)"/>
<path d="M0 0 C0 0.66 0 1.32 0 2 C-4.455 3.485 -4.455 3.485 -9 5 C-9 3.68 -9 2.36 -9 1 C-2.25 0 -2.25 0 0 0 Z " fill="#022865" transform="translate(1413,266)"/>
<path d="M0 0 C-3.90028225 2.60018816 -7.47434569 2.15085514 -12 2 C-12 1.34 -12 0.68 -12 0 C-7.6835078 -0.76173392 -4.25566547 -1.16063604 0 0 Z " fill="#023179" transform="translate(1612,195)"/>
<path d="M0 0 C0.33 1.98 0.66 3.96 1 6 C0.01 6 -0.98 6 -2 6 C-2.66 4.35 -3.32 2.7 -4 1 C-2 0 -2 0 0 0 Z " fill="#7AA5EC" transform="translate(293,673)"/>
<path d="M0 0 C5.75 1.875 5.75 1.875 8 3 C8 3.66 8 4.32 8 5 C8.66 5 9.32 5 10 5 C10 5.66 10 6.32 10 7 C6.4124787 5.66749209 3.1635377 4.169283 0 2 C0 1.34 0 0.68 0 0 Z " fill="#7DA5E4" transform="translate(218,608)"/>
<path d="M0 0 C1.98 0.495 1.98 0.495 4 1 C4 1.66 4 2.32 4 3 C6.475 3.99 6.475 3.99 9 5 C7 6 7 6 5.0546875 5.44140625 C4.33539062 5.15136719 3.61609375 4.86132812 2.875 4.5625 C2.15054688 4.27503906 1.42609375 3.98757813 0.6796875 3.69140625 C-0.15175781 3.34916016 -0.15175781 3.34916016 -1 3 C-0.67 2.01 -0.34 1.02 0 0 Z " fill="#4175DD" transform="translate(655,425)"/>
<path d="M0 0 C-3.28463659 2.18975773 -6.20696275 2.99806563 -10 4 C-10 3.01 -10 2.02 -10 1 C-6.52674819 -0.1577506 -3.63932552 -0.06866652 0 0 Z " fill="#1A67C6" transform="translate(829,116)"/>
<path d="M0 0 C2.475 0.495 2.475 0.495 5 1 C5 1.99 5 2.98 5 4 C5.66 4.33 6.32 4.66 7 5 C4.03 4.505 4.03 4.505 1 4 C0.67 2.68 0.34 1.36 0 0 Z " fill="#7AA2E8" transform="translate(1203,904)"/>
<path d="M0 0 C2.31 0 4.62 0 7 0 C6.67 1.65 6.34 3.3 6 5 C2.83884224 3.63016497 2.0072908 3.0109362 0 0 Z " fill="#78A1E7" transform="translate(385,840)"/>
<path d="M0 0 C0.144375 0.61875 0.28875 1.2375 0.4375 1.875 C0.93152225 4.03258322 0.93152225 4.03258322 2 6 C1.01 6.33 0.02 6.66 -1 7 C-1.99 5.68 -2.98 4.36 -4 3 C-3 1 -3 1 0 0 Z " fill="#79A4EA" transform="translate(357,800)"/>
<path d="M0 0 C0.8353125 0.37125 0.8353125 0.37125 1.6875 0.75 C1.3575 1.41 1.0275 2.07 0.6875 2.75 C-1.96110427 3.34355614 -4.60447322 3.49209269 -7.3125 3.75 C-2.88173077 -0.31153846 -2.88173077 -0.31153846 0 0 Z " fill="#2D55A5" transform="translate(1135.3125,685.25)"/>
<path d="M0 0 C2 1 2 1 3.1875 3.8125 C3.9946573 6.97904018 3.91292822 8.01517795 3 11 C2.49384702 9.73160474 1.99530901 8.46016898 1.5 7.1875 C1.2215625 6.47980469 0.943125 5.77210938 0.65625 5.04296875 C0 3 0 3 0 0 Z " fill="#447CEB" transform="translate(771,547)"/>
<path d="M0 0 C2.64 0 5.28 0 8 0 C8.33 0.66 8.66 1.32 9 2 C4.545 2.495 4.545 2.495 0 3 C0 2.01 0 1.02 0 0 Z " fill="#155096" transform="translate(1152,477)"/>
<path d="M0 0 C1.38232443 1.62626404 2.71937515 3.2925002 4 5 C1.6875 5.25 1.6875 5.25 -1 5 C-2.8125 3 -2.8125 3 -4 1 C-2 0 -2 0 0 0 Z " fill="#1D61BA" transform="translate(1047,457)"/>
<path d="M0 0 C2.97 0.33 5.94 0.66 9 1 C9 1.66 9 2.32 9 3 C6.03 3 3.06 3 0 3 C0 2.01 0 1.02 0 0 Z " fill="#013381" transform="translate(1274,300)"/>
<path d="M0 0 C0 0.66 0 1.32 0 2 C-2.31 2.33 -4.62 2.66 -7 3 C-7 2.01 -7 1.02 -7 0 C-2.25 -1.125 -2.25 -1.125 0 0 Z " fill="#154B8E" transform="translate(440,301)"/>
<path d="M0 0 C-0.33 0.66 -0.66 1.32 -1 2 C-3.64860427 2.59355614 -6.29197322 2.74209269 -9 3 C-9 2.34 -9 1.68 -9 1 C-6.04335481 -0.4783226 -3.25770263 -0.06032783 0 0 Z " fill="#144988" transform="translate(553,276)"/>
<path d="M0 0 C0 0.66 0 1.32 0 2 C-3.21451269 3.60725635 -6.43612536 3.05748185 -10 3 C-9.67 2.34 -9.34 1.68 -9 1 C-5.85554549 0.15014743 -3.29227921 0 0 0 Z " fill="#022967" transform="translate(757,136)"/>
<path d="M0 0 C3.63 0.66 7.26 1.32 11 2 C10.34 2.66 9.68 3.32 9 4 C5.62008426 3.6442194 2.95711562 2.64284201 0 1 C0 0.67 0 0.34 0 0 Z " fill="#779EDC" transform="translate(476,899)"/>
<path d="M0 0 C1.32 0.33 2.64 0.66 4 1 C4 1.66 4 2.32 4 3 C4.99 3 5.98 3 7 3 C6.67 4.32 6.34 5.64 6 7 C3.95880212 5.38405168 1.95927063 3.7143618 0 2 C0 1.34 0 0.68 0 0 Z " fill="#3E77E8" transform="translate(1489,737)"/>
<path d="M0 0 C2.64 0.99 5.28 1.98 8 3 C8 3.99 8 4.98 8 6 C5.36 4.68 2.72 3.36 0 2 C0 1.34 0 0.68 0 0 Z " fill="#457AE1" transform="translate(1417,688)"/>
<path d="M0 0 C1.32 0 2.64 0 4 0 C4 1.65 4 3.3 4 5 C4.66 5 5.32 5 6 5 C6 5.66 6 6.32 6 7 C3.00675737 5.9024777 2.15389099 5.32317108 0.75 2.375 C0.5025 1.59125 0.255 0.8075 0 0 Z " fill="#4178E8" transform="translate(813,680)"/>
<path d="M0 0 C-0.33 1.32 -0.66 2.64 -1 4 C-3.97 3.505 -3.97 3.505 -7 3 C-7 2.34 -7 1.68 -7 1 C-4.50935112 0.31292445 -2.62113708 0 0 0 Z " fill="#1B5DB1" transform="translate(1587,408)"/>
<path d="M0 0 C0 0.33 0 0.66 0 1 C-4.40914783 2.10228696 -8.48382401 2.07654536 -13 2 C-13 1.67 -13 1.34 -13 1 C-8.23947038 -0.97387813 -5.03511899 -1.0070238 0 0 Z " fill="#033683" transform="translate(1309,301)"/>
<path d="M0 0 C0 0.66 0 1.32 0 2 C-4.455 2.495 -4.455 2.495 -9 3 C-7.14340032 -0.71319936 -3.69365381 -0.09982848 0 0 Z " fill="#022B6C" transform="translate(723,145)"/>
<path d="M0 0 C1.65 0 3.3 0 5 0 C5.33 0.66 5.66 1.32 6 2 C3.36 2.66 0.72 3.32 -2 4 C-1.34 2.68 -0.68 1.36 0 0 Z " fill="#022E70" transform="translate(889,93)"/>
<path d="M0 0 C-3.3 0.66 -6.6 1.32 -10 2 C-9.67 1.01 -9.34 0.02 -9 -1 C-4.80410573 -2.16552619 -4.17908064 -2.08954032 0 0 Z " fill="#6685B2" transform="translate(788,908)"/>
<path d="M0 0 C0.66 0 1.32 0 2 0 C2.79953138 3.28696233 3.09658936 4.71023192 2 8 C1.34 8 0.68 8 0 8 C-0.38063221 5.6739143 -0.71269945 3.33944736 -1 1 C-0.67 0.67 -0.34 0.34 0 0 Z " fill="#3A76E9" transform="translate(1538,848)"/>
<path d="M0 0 C0.99 0 1.98 0 3 0 C3.66 1.98 4.32 3.96 5 6 C1.83884224 4.63016497 1.0072908 4.0109362 -1 1 C-0.67 0.67 -0.34 0.34 0 0 Z " fill="#76A0E6" transform="translate(396,848)"/>
<path d="M0 0 C2.64 0 5.28 0 8 0 C8.33 0.99 8.66 1.98 9 3 C4.545 2.01 4.545 2.01 0 1 C0 0.67 0 0.34 0 0 Z " fill="#3E70D1" transform="translate(858,709)"/>
<path d="M0 0 C-0.33 0.66 -0.66 1.32 -1 2 C-3.64860427 2.59355614 -6.29197322 2.74209269 -9 3 C-9 2.34 -9 1.68 -9 1 C-5.8035914 -0.06546953 -3.34252724 -0.07427838 0 0 Z " fill="#325AAB" transform="translate(1174,680)"/>
<path d="M0 0 C2.31 0.33 4.62 0.66 7 1 C3.77208445 3.1519437 2.71599191 3.20086443 -1 3 C-0.67 2.01 -0.34 1.02 0 0 Z " fill="#19539F" transform="translate(49,113)"/>
<path d="M0 0 C0.99 0 1.98 0 3 0 C3 0.66 3 1.32 3 2 C4.65 2.33 6.3 2.66 8 3 C8 3.66 8 4.32 8 5 C2.25 3.125 2.25 3.125 0 2 C0 1.34 0 0.68 0 0 Z " fill="#4479E3" transform="translate(1429,694)"/>
<path d="M0 0 C0.99 0.33 1.98 0.66 3 1 C3 3.31 3 5.62 3 8 C2.34 7.67 1.68 7.34 1 7 C0.59270772 4.67843403 0.25561323 2.3431213 0 0 Z " fill="#417AEB" transform="translate(786,605)"/>
<path d="M0 0 C2.31 0 4.62 0 7 0 C7 1.32 7 2.64 7 4 C4.97954558 3.39816251 2.97888961 2.72693904 1 2 C0.67 1.34 0.34 0.68 0 0 Z " fill="#77A0E1" transform="translate(205,601)"/>
<path d="M0 0 C0.928125 0.20625 1.85625 0.4125 2.8125 0.625 C2.8125 1.285 2.8125 1.945 2.8125 2.625 C-0.1575 2.295 -3.1275 1.965 -6.1875 1.625 C-3.1875 -0.375 -3.1875 -0.375 0 0 Z " fill="#759AD5" transform="translate(124.1875,573.375)"/>
</svg>
